<svg width="36" height="32" fill="none" xmlns="http://www.w3.org/2000/svg"><path fill-rule="evenodd" clip-rule="evenodd" d="M9.956 26.377a1.39 1.39 0 1 0-1.965 1.966 1.39 1.39 0 0 0 1.965-1.966Zm1.768-1.767a3.89 3.89 0 1 0 0 5.5m0 0a3.889 3.889 0 0 0 0-5.5v5.5Zm1.693-28.443c0-.69.56-1.25 1.25-1.25h6.666a2.917 2.917 0 0 1 2.917 2.916V20c0 .69-.56 1.25-1.25 1.25H1.333a1.25 1.25 0 0 1 0-2.5H21.75V3.333a.417.417 0 0 0-.417-.416h-6.666c-.69 0-1.25-.56-1.25-1.25Z" fill="#45BEDF"/><path fill-rule="evenodd" clip-rule="evenodd" d="M1.333 15.417c.69 0 1.25.56 1.25 1.25v9.026c0 .23.187.417.417.417h3.333a1.25 1.25 0 1 1 0 2.5H3a2.917 2.917 0 0 1-2.917-2.917v-9.026c0-.69.56-1.25 1.25-1.25Zm20.417-8.75c0-.69.56-1.25 1.25-1.25h7.205c1.192 0 2.266.725 2.708 1.835l2.677 6.69a4.61 4.61 0 0 1 .327 1.7v9.913A2.917 2.917 0 0 1 33 28.472h-3.052a1.25 1.25 0 1 1 0-2.5H33c.23 0 .417-.187.417-.417v-9.913c0-.263-.05-.526-.15-.774L30.591 8.18v-.002a.414.414 0 0 0-.386-.26H23c-.69 0-1.25-.56-1.25-1.25Zm-11.383 20.7c0-.69.56-1.25 1.25-1.25h13.05a1.25 1.25 0 0 1 0 2.5h-13.05c-.69 0-1.25-.56-1.25-1.25Z" fill="#45BEDF"/><path fill-rule="evenodd" clip-rule="evenodd" d="M26.75 11.667c0-.69.56-1.25 1.25-1.25h5.333a1.25 1.25 0 0 1 0 2.5H29.25v4.166h5.417a1.25 1.25 0 0 1 0 2.5H28c-.69 0-1.25-.56-1.25-1.25v-6.666Zm-26.667-10c0-.69.56-1.25 1.25-1.25h8.334a1.25 1.25 0 1 1 0 2.5H1.333c-.69 0-1.25-.56-1.25-1.25Zm0 5c0-.69.56-1.25 1.25-1.25h5a1.25 1.25 0 1 1 0 2.5h-5c-.69 0-1.25-.56-1.25-1.25Zm0 5c0-.69.56-1.25 1.25-1.25H3a1.25 1.25 0 0 1 0 2.5H1.333c-.69 0-1.25-.56-1.25-1.25Zm9.873 14.71a1.39 1.39 0 1 0-1.965 1.966 1.39 1.39 0 0 0 1.965-1.966Zm1.768-1.767a3.89 3.89 0 1 0 0 5.5m0 0a3.889 3.889 0 0 0 0-5.5v5.5Zm1.693-28.443c0-.69.56-1.25 1.25-1.25h6.666a2.917 2.917 0 0 1 2.917 2.916V20c0 .69-.56 1.25-1.25 1.25H1.333a1.25 1.25 0 0 1 0-2.5H21.75V3.333a.417.417 0 0 0-.417-.416h-6.666c-.69 0-1.25-.56-1.25-1.25Z" fill="#45BEDF"/><path fill-rule="evenodd" clip-rule="evenodd" d="M1.333 15.417c.69 0 1.25.56 1.25 1.25v9.026c0 .23.187.417.417.417h3.333a1.25 1.25 0 1 1 0 2.5H3a2.917 2.917 0 0 1-2.917-2.917v-9.026c0-.69.56-1.25 1.25-1.25Zm20.417-8.75c0-.69.56-1.25 1.25-1.25h7.205c1.192 0 2.266.725 2.708 1.835l2.677 6.69a4.61 4.61 0 0 1 .327 1.7v9.913A2.917 2.917 0 0 1 33 28.472h-3.052a1.25 1.25 0 1 1 0-2.5H33c.23 0 .417-.187.417-.417v-9.913c0-.263-.05-.526-.15-.774L30.591 8.18v-.002a.414.414 0 0 0-.386-.26H23c-.69 0-1.25-.56-1.25-1.25Zm-11.383 20.7c0-.69.56-1.25 1.25-1.25h13.05a1.25 1.25 0 0 1 0 2.5h-13.05c-.69 0-1.25-.56-1.25-1.25Z" fill="#45BEDF"/><path fill-rule="evenodd" clip-rule="evenodd" d="M26.75 11.667c0-.69.56-1.25 1.25-1.25h5.333a1.25 1.25 0 0 1 0 2.5H29.25v4.166h5.417a1.25 1.25 0 0 1 0 2.5H28c-.69 0-1.25-.56-1.25-1.25v-6.666Zm-26.667-10c0-.69.56-1.25 1.25-1.25h8.334a1.25 1.25 0 1 1 0 2.5H1.333c-.69 0-1.25-.56-1.25-1.25Zm0 5c0-.69.56-1.25 1.25-1.25h5a1.25 1.25 0 1 1 0 2.5h-5c-.69 0-1.25-.56-1.25-1.25Zm0 5c0-.69.56-1.25 1.25-1.25H3a1.25 1.25 0 0 1 0 2.5H1.333c-.69 0-1.25-.56-1.25-1.25Zm28.198 14.71a1.39 1.39 0 1 0-1.965 1.966 1.39 1.39 0 0 0 1.965-1.966Zm1.768-1.767a3.89 3.89 0 1 0 0 5.5m0 0a3.889 3.889 0 0 0 0-5.5v5.5Z" fill="#45BEDF"/><path fill-rule="evenodd" clip-rule="evenodd" d="M28.281 26.377a1.39 1.39 0 1 0-1.965 1.966 1.39 1.39 0 0 0 1.965-1.966Zm1.768-1.767a3.89 3.89 0 1 0 0 5.5m0 0a3.889 3.889 0 0 0 0-5.5v5.5Z" fill="#45BEDF"/></svg>