<svg width="34" height="34" fill="none" xmlns="http://www.w3.org/2000/svg"><path fill-rule="evenodd" clip-rule="evenodd" d="M10.33 3.244a2.085 2.085 0 0 0-2.084 2.084v8.337a1.25 1.25 0 0 1-2.5 0V5.328A4.585 4.585 0 0 1 10.331.744h18.34a4.585 4.585 0 0 1 4.585 4.584v23.343a4.585 4.585 0 0 1-4.584 4.585h-6.67a1.25 1.25 0 0 1 0-2.5h6.67a2.085 2.085 0 0 0 2.084-2.085V5.328a2.085 2.085 0 0 0-2.084-2.084H10.33Z" fill="#45BEDF"/><path fill-rule="evenodd" clip-rule="evenodd" d="M12.415 8.663c0-.69.56-1.25 1.25-1.25h11.672a1.25 1.25 0 0 1 0 2.5H13.665c-.69 0-1.25-.56-1.25-1.25Zm3.335 6.669c0-.69.56-1.25 1.25-1.25h8.337a1.25 1.25 0 0 1 0 2.5H17c-.69 0-1.25-.56-1.25-1.25Zm5.002 6.67c0-.69.56-1.25 1.25-1.25h3.335a1.25 1.25 0 0 1 0 2.5h-3.335c-.69 0-1.25-.56-1.25-1.25ZM3.244 24.044v6.67h1.67v-6.67h-1.67Zm1.986 7v-.33h.02l-.005.33H5.23Zm0 .05v.87l.014-.87H5.23Zm-.008 2.12H2.926a2.182 2.182 0 0 1-2.182-2.182v-7.306a2.182 2.182 0 0 1 2.182-2.182H5.25a2.199 2.199 0 0 1 2.164 2.222v7.328c0 .023 0 .045-.002.068a2.17 2.17 0 0 1-2.19 2.053Z" fill="#45BEDF"/><path fill-rule="evenodd" clip-rule="evenodd" d="m10.308 20.394-3.08 5.029a1.25 1.25 0 0 1-2.132-1.306l3.083-5.032a3.5 3.5 0 0 1 6.483 1.815v1.424h1.268c1.175 0 2.273.59 2.922 1.57.574.863.74 1.936.456 2.933L18.087 31.1a2.932 2.932 0 0 1-2.815 2.124H9.3a3.344 3.344 0 0 1-2.13-.767l-.003-.002-1.804-1.501a1.25 1.25 0 0 1 1.599-1.922l1.8 1.498a.847.847 0 0 0 .538.194h5.97c.192 0 .36-.128.414-.312l1.22-4.27c.084-.294.035-.61-.134-.864l-.002-.002a1.008 1.008 0 0 0-.839-.45h-2.517c-.69 0-1.25-.56-1.25-1.25V20.91a1 1 0 0 0-1.854-.516Z" fill="#45BEDF"/><path fill-rule="evenodd" clip-rule="evenodd" d="M10.33 3.244a2.085 2.085 0 0 0-2.084 2.084v8.337a1.25 1.25 0 0 1-2.5 0V5.328A4.585 4.585 0 0 1 10.331.744h18.34a4.585 4.585 0 0 1 4.585 4.584v23.343a4.585 4.585 0 0 1-4.584 4.585h-6.67a1.25 1.25 0 0 1 0-2.5h6.67a2.085 2.085 0 0 0 2.084-2.085V5.328a2.085 2.085 0 0 0-2.084-2.084H10.33Z" fill="#45BEDF"/><path fill-rule="evenodd" clip-rule="evenodd" d="M12.415 8.663c0-.69.56-1.25 1.25-1.25h11.672a1.25 1.25 0 0 1 0 2.5H13.665c-.69 0-1.25-.56-1.25-1.25Zm3.335 6.669c0-.69.56-1.25 1.25-1.25h8.337a1.25 1.25 0 0 1 0 2.5H17c-.69 0-1.25-.56-1.25-1.25Zm5.002 6.67c0-.69.56-1.25 1.25-1.25h3.335a1.25 1.25 0 0 1 0 2.5h-3.335c-.69 0-1.25-.56-1.25-1.25ZM3.244 24.044v6.67h1.67v-6.67h-1.67Zm1.986 7v-.33h.02l-.005.33H5.23Zm0 .05v.87l.014-.87H5.23Zm-.008 2.12H2.926a2.182 2.182 0 0 1-2.182-2.182v-7.306a2.182 2.182 0 0 1 2.182-2.182H5.25a2.199 2.199 0 0 1 2.164 2.222v7.328c0 .023 0 .045-.002.068a2.17 2.17 0 0 1-2.19 2.053Z" fill="#45BEDF"/><path fill-rule="evenodd" clip-rule="evenodd" d="m10.308 20.394-3.08 5.029a1.25 1.25 0 0 1-2.132-1.306l3.083-5.032a3.5 3.5 0 0 1 6.483 1.815v1.424h1.268c1.175 0 2.273.59 2.922 1.57.574.863.74 1.936.456 2.933L18.087 31.1a2.932 2.932 0 0 1-2.815 2.124H9.3a3.344 3.344 0 0 1-2.13-.767l-.003-.002-1.804-1.501a1.25 1.25 0 0 1 1.599-1.922l1.8 1.498a.847.847 0 0 0 .538.194h5.97c.192 0 .36-.128.414-.312l1.22-4.27c.084-.294.035-.61-.134-.864l-.002-.002a1.008 1.008 0 0 0-.839-.45h-2.517c-.69 0-1.25-.56-1.25-1.25V20.91a1 1 0 0 0-1.854-.516Z" fill="#45BEDF"/></svg>