<svg width="34" height="34" fill="none" xmlns="http://www.w3.org/2000/svg"><path fill-rule="evenodd" clip-rule="evenodd" d="M27.714 12.327a2.085 2.085 0 0 0-2.454-.927 1.25 1.25 0 1 1-.783-2.374 4.585 4.585 0 0 1 5.395 2.04l2.757 4.713a4.585 4.585 0 0 1-1.687 6.298l-16.76 9.553a12.393 12.393 0 0 1-6.143 1.626l.001-2.5a9.9 9.9 0 0 0 4.903-1.298l16.76-9.553a2.085 2.085 0 0 0 .768-2.863l-2.757-4.715Z" fill="#45BEDF"/><path fill-rule="evenodd" clip-rule="evenodd" d="M5.329 3.244a2.085 2.085 0 0 0-2.085 2.084V26.17a4.586 4.586 0 0 0 9.171 0V5.328a2.085 2.085 0 0 0-2.084-2.084H5.329Zm2.5 30.012A7.086 7.086 0 0 1 .745 26.17V5.328A4.585 4.585 0 0 1 5.329.744h5.002a4.585 4.585 0 0 1 4.584 4.584V26.17a7.086 7.086 0 0 1-7.085 7.086Z" fill="#45BEDF"/><path fill-rule="evenodd" clip-rule="evenodd" d="M12.86 4.426a4.585 4.585 0 0 1 6.228-1.668L23.901 5.5a4.585 4.585 0 0 1 1.687 6.297l-9.92 16.965a9.074 9.074 0 0 1-7.838 4.493 1.25 1.25 0 0 1 0-2.5 6.576 6.576 0 0 0 5.68-3.256l9.92-16.964a2.085 2.085 0 0 0-.767-2.863L17.85 4.93a2.085 2.085 0 0 0-2.832.759l-.274.468a1.25 1.25 0 1 1-2.158-1.262l.274-.469Z" fill="#45BEDF"/></svg>