<svg width="34" height="34" fill="none" xmlns="http://www.w3.org/2000/svg"><path fill-rule="evenodd" clip-rule="evenodd" d="M31.56 4.978c.69 0 1.25.56 1.25 1.25v3.334c0 .69-.56 1.25-1.25 1.25h-3.333a1.25 1.25 0 1 1 0-2.5h2.083V6.228c0-.69.56-1.25 1.25-1.25Zm-19.467 8.705a1.2 1.2 0 0 0-1.198 1.199 1.25 1.25 0 1 1-2.5 0 3.699 3.699 0 0 1 7.396 0c0 1.155-.481 2.021-1.105 2.683-.52.552-1.184 1.002-1.723 1.368l-.164.112c-.681.465-1.183.845-1.5 1.27h3.242a1.25 1.25 0 1 1 0 2.5H9.647c-.69 0-1.25-.56-1.25-1.25 0-2.531 1.802-3.772 2.992-4.585l.122-.083c.598-.408 1.034-.705 1.356-1.047.294-.312.424-.593.424-.968 0-.662-.537-1.199-1.198-1.199Zm6.782-2.498c.69 0 1.25.56 1.25 1.25v3.329l3.378.036a1.25 1.25 0 0 1-.026 2.5l-4.191-.045a1.683 1.683 0 0 1-1.661-1.683v-4.137c0-.69.56-1.25 1.25-1.25Z" fill="#45BEDF"/><path fill-rule="evenodd" clip-rule="evenodd" d="M23.483 11.283c.69 0 1.25.56 1.25 1.25v9.034a1.25 1.25 0 0 1-2.5 0v-9.034c0-.69.56-1.25 1.25-1.25Z" fill="#45BEDF"/><path fill-rule="evenodd" clip-rule="evenodd" d="M.195 17C.195 7.72 7.718.195 17 .195a17.02 17.02 0 0 1 14.927 8.764 1.25 1.25 0 0 1-2.188 1.209A14.523 14.523 0 0 0 17 2.695C9.099 2.695 2.695 9.1 2.695 17c0 7.9 6.404 14.305 14.305 14.305S31.305 24.9 31.305 17a1.25 1.25 0 1 1 2.5 0c0 9.28-7.523 16.805-16.805 16.805S.195 26.28.195 17Z" fill="#45BEDF"/></svg>