<svg width="35" height="34" fill="none" xmlns="http://www.w3.org/2000/svg"><path fill-rule="evenodd" clip-rule="evenodd" d="M8.667 3.25a5.417 5.417 0 1 0 0 10.833H22c1.15 0 2.083-.932 2.083-2.083V5.333c0-1.15-.932-2.083-2.083-2.083H8.667ZM.75 8.667A7.917 7.917 0 0 1 8.667.75H22a4.583 4.583 0 0 1 4.583 4.583V12A4.583 4.583 0 0 1 22 16.583H8.667A7.917 7.917 0 0 1 .75 8.667Z" fill="#45BEDF"/><path fill-rule="evenodd" clip-rule="evenodd" d="M23.978 4.5c0-.69.56-1.25 1.25-1.25h3.439a2.917 2.917 0 0 1 2.916 2.917V9.5a2.917 2.917 0 0 1-2.916 2.917h-3.334a1.25 1.25 0 0 1 0-2.5h3.334c.23 0 .416-.187.416-.417V6.167a.417.417 0 0 0-.416-.417h-3.44c-.69 0-1.25-.56-1.25-1.25Z" fill="#45BEDF"/><path fill-rule="evenodd" clip-rule="evenodd" d="M29.083 7.833c0-.69.56-1.25 1.25-1.25h3.334a1.25 1.25 0 0 1 0 2.5h-3.334c-.69 0-1.25-.56-1.25-1.25Zm-21.666.834c0-.69.56-1.25 1.25-1.25h4.33a1.25 1.25 0 0 1 0 2.5h-4.33c-.69 0-1.25-.56-1.25-1.25Zm9.145 5.481a1.25 1.25 0 0 1 .79 1.58l-3.333 10a1.25 1.25 0 1 1-2.372-.79l3.334-10a1.25 1.25 0 0 1 1.58-.79Z" fill="#45BEDF"/><path fill-rule="evenodd" clip-rule="evenodd" d="M22 14.083c.69 0 1.25.56 1.25 1.25v2.378a3.873 3.873 0 0 1-3.873 3.872H14.5a1.25 1.25 0 1 1 0-2.5h4.877c.758 0 1.373-.614 1.373-1.372v-2.378c0-.69.56-1.25 1.25-1.25Zm-13.755.015a1.25 1.25 0 0 1 .79 1.58l-3.35 10.05a1.25 1.25 0 1 1-2.37-.79l3.349-10.05a1.25 1.25 0 0 1 1.581-.79Z" fill="#45BEDF"/><path fill-rule="evenodd" clip-rule="evenodd" d="M.75 27a2.917 2.917 0 0 1 2.917-2.917h10A2.917 2.917 0 0 1 16.583 27v3.333a2.917 2.917 0 0 1-2.916 2.917h-10A2.917 2.917 0 0 1 .75 30.333V27Zm2.917-.417A.417.417 0 0 0 3.25 27v3.333c0 .23.187.417.417.417h10c.23 0 .416-.186.416-.417V27a.417.417 0 0 0-.416-.417h-10Z" fill="#45BEDF"/></svg>