<svg width="20" height="20" fill="none" xmlns="http://www.w3.org/2000/svg"><path fill-rule="evenodd" clip-rule="evenodd" d="M.568 9.92C.569 4.7 4.816.455 10.037.455c2.53.001 4.91.988 6.697 2.776a9.412 9.412 0 0 1 2.77 6.695c-.001 5.22-4.248 9.465-9.467 9.465h-.004a9.466 9.466 0 0 1-4.258-1.012l-4.34 1.139a.75.75 0 0 1-.914-.924l1.156-4.222A9.45 9.45 0 0 1 .567 9.92Zm9.469-7.964c-4.393 0-7.968 3.574-7.97 7.964a7.953 7.953 0 0 0 1.064 3.982c.1.174.126.38.073.573l-.893 3.263 3.365-.882a.75.75 0 0 1 .548.066c1.17.636 2.478.97 3.809.97h.004c4.39 0 7.966-3.574 7.968-7.965a7.912 7.912 0 0 0-2.332-5.635 7.916 7.916 0 0 0-5.636-2.336Z" fill="#282828"/><path d="M7.034 6.35a.333.333 0 0 1 .51.042c.243.35.506.728.8 1.145a.342.342 0 0 1-.033.434l-.403.406a.75.75 0 1 0 1.064 1.056l.403-.406a1.84 1.84 0 0 0 .197-2.352c-.293-.415-.554-.79-.796-1.14a1.833 1.833 0 0 0-2.802-.245l-.354.353a.672.672 0 0 0-.007.007C4.6 6.67 4.59 8.006 5.02 9.216c.426 1.196 1.296 2.38 2.322 3.406.292.293.783.315 1.076.023a.77.77 0 0 0-.01-1.078c-.939-.94-1.651-1.944-1.975-2.854-.317-.892-.217-1.539.239-2l.003-.004.36-.359Z" fill="#282828"/><path d="M13.615 12.996a.333.333 0 0 0-.035-.51c-.348-.247-.722-.514-1.136-.814a.342.342 0 0 0-.434.03l-.41.397a.75.75 0 0 1-1.045-1.077l.411-.398a1.84 1.84 0 0 1 2.354-.168h.001c.411.297.783.562 1.13.809a1.833 1.833 0 0 1 .212 2.805l-.357.349-.007.007c-1.031 1.002-2.368.995-3.573.55-1.191-.439-2.37-1.316-3.384-2.354-.29-.296-.3-.794-.004-1.083.296-.29.78-.268 1.07.028.929.95 1.932 1.669 2.837 2.003.89.327 1.537.235 2.004-.215l.003-.004.363-.355Z" fill="#282828"/><path fill-rule="evenodd" clip-rule="evenodd" d="M8.038 8.272a.75.75 0 0 1 1.035.231c.285.45.658.905 1.087 1.335l.002.002c.43.43.885.802 1.335 1.087a.75.75 0 1 1-.804 1.266A9.43 9.43 0 0 1 9.102 10.9l-.002-.002a9.435 9.435 0 0 1-1.293-1.591.75.75 0 0 1 .231-1.035Z" fill="#282828"/></svg>