<svg width="32" height="32" fill="none" xmlns="http://www.w3.org/2000/svg"><g clip-path="url(#a)"><mask id="b" style="mask-type:alpha" maskUnits="userSpaceOnUse" x="0" y="0" width="32" height="32"><path d="M0 16C0 7.163 7.163 0 16 0s16 7.163 16 16-7.163 16-16 16S0 24.837 0 16Z" fill="#000"/></mask><g mask="url(#b)"><path d="M0 16C0 7.163 7.163 0 16 0s16 7.163 16 16-7.163 16-16 16S0 24.837 0 16Z" fill="#000"/><path fill-rule="evenodd" clip-rule="evenodd" d="M15.52 0c-.08 6.486-.523 10.132-2.955 12.565C10.132 14.997 6.486 15.44 0 15.52v.959c6.486.08 10.132.523 12.565 2.956C14.997 21.867 15.44 25.514 15.52 32h.959c.08-6.486.523-10.132 2.956-12.564C21.867 17.003 25.514 16.56 32 16.48v-.96c-6.486-.08-10.132-.523-12.564-2.955C17.003 10.132 16.56 6.486 16.48 0h-.96Z" fill="#fff"/></g></g><defs><clipPath id="a"><path fill="#fff" d="M0 0h32v32H0z"/></clipPath></defs></svg>