<svg width="18" height="18" fill="none" xmlns="http://www.w3.org/2000/svg"><path d="M12.417 17.167c-.25 0-.417 0-.667-.084-2.417-.5-4.833-1.833-6.917-3.916C2.75 11.084 1.417 8.667.917 6.25c-.167-1.083.166-2.167.916-2.917l.5-.583a2.264 2.264 0 0 1 3.25 0l1 1c.75.75.667 1.917-.083 2.667l-.667.75a10.246 10.246 0 0 0 2.084 3 10.246 10.246 0 0 0 3 2.083l.75-.75c.666-.666 1.916-.75 2.666 0l1 1a2.264 2.264 0 0 1 0 3.25l-.583.584c-.667.5-1.5.833-2.333.833ZM4 3.333c-.25 0-.5.084-.75.334l-.583.5C2.25 4.667 2 5.334 2.167 6c.416 2.167 1.666 4.417 3.583 6.25 1.917 1.917 4.083 3.167 6.25 3.584.667.166 1.333-.084 1.833-.5l.584-.584a1.056 1.056 0 0 0 0-1.5l-1-.916a.654.654 0 0 0-.917 0l-.75.75c-.333.333-.917.5-1.333.25C9.167 12.834 8 12 7 11S5.167 8.834 4.667 7.667c-.167-.5-.084-1.083.25-1.417l.666-.667c.334-.333.334-.75.084-1l-.917-.916c-.25-.25-.5-.333-.75-.333Zm8.25 3.084a.636.636 0 0 1-.417-.167c-.5-.5-1.166-.75-1.916-.75h-.084c-.333 0-.583-.25-.666-.583 0-.333.25-.667.583-.667 1.083 0 2.083.417 2.833 1.167.25.25.25.667 0 .917-.083 0-.25.083-.333.083Zm2.333-2.334a.637.637 0 0 1-.416-.166C13 2.75 11.5 2.167 9.833 2.167a.657.657 0 0 1-.666-.667c0-.417.25-.667.666-.667C11.75.833 13.667 1.583 15 3c.25.25.25.667 0 .917a.636.636 0 0 1-.417.167Z" fill="#282828"/><path d="M13.167 8.834a.657.657 0 0 1-.667-.667c0-.75-.25-1.417-.75-1.917a.654.654 0 0 1 0-.917c.25-.25.667-.25.917 0 .75.75 1.166 1.75 1.166 2.834 0 .333-.333.667-.666.667Zm3.333 0a.657.657 0 0 1-.667-.667c0-1.583-.666-3.167-1.75-4.333a.654.654 0 0 1 0-.917c.25-.25.667-.25.917 0 1.417 1.417 2.167 3.25 2.167 5.167 0 .416-.25.75-.667.75Z" fill="#282828"/></svg>