<svg width="15" height="15" fill="none" xmlns="http://www.w3.org/2000/svg"><path fill-rule="evenodd" clip-rule="evenodd" d="M12.357.362c1.406-.521 2.774.847 2.254 2.253l-4.063 10.959c-.6 1.614-2.925 1.487-3.344-.184L6.08 8.902 1.575 7.77c-1.67-.42-1.796-2.744-.182-3.343L12.357.362Zm-3.215 12.69 4.062-10.959a.253.253 0 0 0-.325-.325L1.915 5.833a.253.253 0 0 0 .026.482l4.94 1.241a.75.75 0 0 1 .545.546l1.233 4.923c.06.242.397.26.483.027Z" fill="#282828"/><path fill-rule="evenodd" clip-rule="evenodd" d="M12.357.362c1.406-.521 2.774.847 2.254 2.253l-4.063 10.959c-.6 1.614-2.925 1.487-3.344-.184L6.08 8.902 1.575 7.77c-1.67-.42-1.796-2.744-.182-3.343L12.357.362Zm-3.215 12.69 4.062-10.959a.253.253 0 0 0-.325-.325L1.915 5.833a.253.253 0 0 0 .026.482l4.94 1.241a.75.75 0 0 1 .545.546l1.233 4.923c.06.242.397.26.483.027Z" fill="#282828"/></svg>