<svg width="24" height="24" fill="none" xmlns="http://www.w3.org/2000/svg"><g clip-path="url(#a)"><path d="M12 23.398c6.628 0 12-5.21 12-11.636C24 5.335 18.628.125 12 .125S0 5.335 0 11.762c0 6.426 5.372 11.636 12 11.636Z" fill="#FA3E2C"/><path d="M13.708 6.773h-1.146c-1.963 0-2.945.982-2.945 2.453 0 1.637.655 2.454 2.127 3.435l1.146.819-3.273 5.07H7l3.109-4.58c-1.8-1.309-2.782-2.453-2.782-4.58 0-2.617 1.8-4.416 5.237-4.416H16V18.55h-2.291V6.773Z" fill="#fff"/></g><defs><clipPath id="a"><path fill="#fff" d="M0 0h24v24H0z"/></clipPath></defs></svg>