<svg width="18" height="18" fill="none" xmlns="http://www.w3.org/2000/svg"><path fill-rule="evenodd" clip-rule="evenodd" d="M2.541 3.278A.75.75 0 0 1 3.124 3H15.75a1.75 1.75 0 0 1 1.698 2.175L16.1 10.567a2.75 2.75 0 0 1-2.394 2.07l-6.816.681a2.751 2.751 0 0 1-2.965-2.167L2.39 3.905a.75.75 0 0 1 .151-.627ZM4.05 4.5l1.343 6.34a1.25 1.25 0 0 0 1.347.986l6.816-.682a1.25 1.25 0 0 0 1.088-.94l1.348-5.393a.25.25 0 0 0-.242-.311H4.05Z" fill="#282828"/><path fill-rule="evenodd" clip-rule="evenodd" d="M0 .75A.75.75 0 0 1 .75 0h1.724a.75.75 0 0 1 .733.591l.65 3a.75.75 0 1 1-1.466.318L1.869 1.5H.75A.75.75 0 0 1 0 .75Zm4.833 15.633a1.117 1.117 0 1 1 2.229.001 1.117 1.117 0 0 1-2.229-.001Zm7.417 0a1.117 1.117 0 1 1 2.229.001 1.117 1.117 0 0 1-2.229-.001Z" fill="#282828"/></svg>