<svg width="20" height="16" fill="none" xmlns="http://www.w3.org/2000/svg"><path fill-rule="evenodd" clip-rule="evenodd" d="M4.86 5.355a.75.75 0 0 1 1.032-.244l2.926 1.804a2.251 2.251 0 0 0 2.364 0l2.926-1.804a.75.75 0 1 1 .787 1.276L11.97 8.192a3.751 3.751 0 0 1-3.938 0L5.104 6.387a.75.75 0 0 1-.244-1.032Z" fill="#282828"/><path fill-rule="evenodd" clip-rule="evenodd" d="M.246 3.997a3.75 3.75 0 0 1 3.75-3.75h12.008a3.75 3.75 0 0 1 3.75 3.75v8.006a3.75 3.75 0 0 1-3.75 3.75H3.996a3.75 3.75 0 0 1-3.75-3.75V3.997Zm3.75-2.25a2.25 2.25 0 0 0-2.25 2.25v8.006a2.25 2.25 0 0 0 2.25 2.25h12.008a2.25 2.25 0 0 0 2.25-2.25V3.997a2.25 2.25 0 0 0-2.25-2.25H3.996Z" fill="#282828"/></svg>