<svg width="32" height="32" fill="none" xmlns="http://www.w3.org/2000/svg"><rect width="32" height="32" rx="16" fill="#26A4E3"/><path fill-rule="evenodd" clip-rule="evenodd" d="M6.843 15.431c4.664-2.032 7.775-3.371 9.33-4.019 4.444-1.848 5.368-2.169 5.97-2.18.132-.002.427.031.62.187a.674.674 0 0 1 .227.433c.021.124.048.408.027.63-.241 2.53-1.283 8.67-1.813 11.503-.224 1.199-.666 1.6-1.094 1.64-.929.086-1.634-.614-2.534-1.204-1.408-.923-2.204-1.497-3.57-2.398-1.58-1.041-.556-1.613.344-2.548.236-.245 4.33-3.969 4.409-4.307.01-.042.019-.2-.075-.282-.093-.084-.232-.055-.331-.032-.141.032-2.391 1.518-6.75 4.46-.638.439-1.216.652-1.734.641-.571-.012-1.67-.323-2.487-.588-1.002-.326-1.799-.498-1.73-1.052.037-.288.434-.582 1.191-.884Z" fill="#fff"/></svg>