<svg width="131" height="36" fill="none" xmlns="http://www.w3.org/2000/svg"><g clip-path="url(#a)"><path d="M21.844.343C19.91.053 18.316 0 16.67.027c-1.908 0-3.816.052-5.724.079-1.255 0-1.777.712-1.777 1.977-.027 1.424 0 2.848-.027 4.271-.026 1.74-.888 2.637-2.613 2.663-1.542.027-3.058 0-4.6 0-1.36.027-1.882.554-1.908 1.951a160.029 160.029 0 0 0 0 5.01c.026 1.371.548 1.872 1.96 1.872 1.699.026 3.398.026 5.07 0 1.307-.026 1.83-.527 1.83-1.846.026-1.582-.026-3.164.026-4.746.026-1.476.81-2.267 2.274-2.267h1.385c1.203 0 2.144-.026 3.085-.026 1.28 0 2.561 0 3.868.052h.157c2.561.053 4.495 2.083 4.443 4.509-.052 2.478-1.986 4.324-4.574 4.35H18.08c-1.49-.052-2.98-.026-4.47 0h-2.3c-.051 0-.104.027-.156.053h-.209c-1.255 0-1.777.712-1.777 1.978-.027 1.423 0 2.847-.027 4.27-.026 1.74-.888 2.637-2.613 2.664-1.542.026-3.058 0-4.6 0-1.36.026-1.882.553-1.908 1.95a160.029 160.029 0 0 0 0 5.01c.026 1.371.548 1.872 1.96 1.872 1.699.027 3.398.027 5.07 0 1.307-.026 1.83-.527 1.83-1.845.026-1.582-.026-3.164.026-4.746.026-1.45.784-2.215 2.17-2.268 2.666.053 5.305.053 7.971 0h.445v-.026h.287c6.848-.132 12.598-5.405 13.147-11.944.602-7.066-4.156-13.5-11.082-14.501Z" fill="url(#b)"/><path fill-rule="evenodd" clip-rule="evenodd" d="m119.127 12.471 11.84-.079v3.322h-16.153V.158h16.153l.026 3.296h-11.866v2.663h10.089V9.36h-10.089v3.111ZM112.096.158v15.556h-4.339V7.33l-4.051 8.384h-4.13l-4.339-8.542v8.542h-4.312V.158h5.07l5.646 11.338L107.104.158h4.992Z" fill="#282827"/><path d="M88.18.158h-4.312v15.556h4.312V.158Z" fill="#282827"/><path fill-rule="evenodd" clip-rule="evenodd" d="M76.653 10.44c1.36-.29 2.431-.87 3.19-1.74.783-.87 1.15-1.977 1.15-3.295v-.08a4.638 4.638 0 0 0-.837-2.715c-.55-.764-1.333-1.37-2.327-1.819-.993-.422-2.143-.66-3.423-.66H63.14v15.557h4.156v-5.036h4.365l4.26 5.036h5.176l-4.444-5.247ZM75.4 7.357c-.418.053-1.02.106-1.778.106h-6.299V3.349c2.483 0 4.287 0 5.437-.053.235-.027.523-.027.862-.027.758 0 1.36.027 1.778.106.418.079.758.264 1.02.554.26.316.391.79.391 1.476 0 .633-.13 1.081-.392 1.397a1.52 1.52 0 0 1-1.02.554Zm-15.788-4.72c-.549-.791-1.307-1.398-2.326-1.82-.993-.421-2.144-.659-3.424-.659H42.597v15.556h4.338v-5.036h7.319c1.96 0 3.502-.448 4.574-1.344 1.072-.897 1.62-2.215 1.62-3.902v-.08c0-1.054-.287-1.95-.836-2.715Zm-3.607 4.192a1.74 1.74 0 0 1-1.045.527c-.419.053-.994.106-1.752.106H46.91V3.349h6.299c.732 0 1.307.026 1.752.105.418.08.784.264 1.071.554.288.29.418.79.418 1.45-.026.633-.156 1.081-.444 1.371Zm32.018 16.716c-.836-1.213-1.986-2.189-3.45-2.874-1.463-.686-3.11-1.055-4.94-1.055-1.75 0-3.371.343-4.861 1.055-1.49.686-2.666 1.661-3.529 2.874-.862 1.239-1.306 2.584-1.306 4.113 0 1.503.444 2.847 1.306 4.087.863 1.213 2.04 2.162 3.529 2.873 1.49.686 3.11 1.055 4.861 1.055 1.83 0 3.477-.343 4.94-1.055 1.464-.685 2.614-1.634 3.45-2.847.837-1.213 1.255-2.584 1.255-4.087 0-1.555-.418-2.926-1.255-4.14Zm-3.92 6.618c-.497.685-1.124 1.239-1.934 1.582a5.818 5.818 0 0 1-2.51.553 5.934 5.934 0 0 1-2.535-.553 4.631 4.631 0 0 1-1.934-1.609c-.496-.712-.732-1.555-.732-2.505 0-.949.236-1.766.706-2.478.47-.712 1.124-1.239 1.908-1.608a6.05 6.05 0 0 1 2.561-.554c.89 0 1.726.185 2.51.554a4.87 4.87 0 0 1 1.934 1.634c.496.712.732 1.53.732 2.479.026.975-.21 1.793-.706 2.505Zm26.085-6.618c-.837-1.213-1.987-2.189-3.45-2.874-1.464-.686-3.111-1.055-4.94-1.055-1.751 0-3.372.343-4.862 1.055-1.49.686-2.666 1.661-3.528 2.874-.863 1.239-1.307 2.584-1.307 4.113 0 1.503.444 2.847 1.307 4.087.888 1.213 2.064 2.162 3.528 2.873a11.502 11.502 0 0 0 4.862 1.055c1.829 0 3.476-.343 4.94-1.055 1.463-.685 2.613-1.634 3.45-2.847.836-1.213 1.254-2.584 1.254-4.087 0-1.555-.418-2.926-1.254-4.14Zm-3.921 6.618c-.496.685-1.124 1.239-1.908 1.582a5.817 5.817 0 0 1-2.509.553 6.137 6.137 0 0 1-2.561-.553 4.631 4.631 0 0 1-1.935-1.609c-.47-.712-.731-1.555-.731-2.505 0-.949.235-1.766.705-2.478.47-.712 1.124-1.239 1.908-1.608a6.053 6.053 0 0 1 2.562-.554 5.82 5.82 0 0 1 2.509.554 4.626 4.626 0 0 1 1.908 1.634c.497.712.732 1.53.732 2.479a4.017 4.017 0 0 1-.68 2.505Zm23.628-6.487c-.732-1.16-1.777-2.056-3.11-2.715-1.359-.66-2.928-1.002-4.705-1.002h-7.789V35.25h7.815c1.778 0 3.346-.343 4.679-1.002 1.359-.66 2.378-1.582 3.11-2.716.732-1.16 1.098-2.452 1.098-3.902 0-1.476-.366-2.795-1.098-3.955Zm-4.365 6.96c-.862.686-1.934 1.03-3.241 1.03h-3.764v-8.148h3.764c.81 0 1.568.185 2.274.554.68.369 1.229.87 1.647 1.476.418.633.601 1.319.601 2.057-.026 1.345-.444 2.346-1.281 3.032Z" fill="#282827"/><path d="m63.899 19.959-3.189 10.52-3.188-10.52h-4.287l-3.189 10.52-3.188-10.52H42.57l4.626 15.24h5.698l2.483-8.174 2.483 8.173h5.698l4.627-15.24h-4.287Z" fill="#282827"/></g><defs><linearGradient id="b" x1="-1.796" y1="32.862" x2="28.205" y2="3.122" gradientUnits="userSpaceOnUse"><stop stop-color="#46B17A"/><stop offset=".506" stop-color="#00AF9F"/><stop offset="1" stop-color="#45BEDF"/></linearGradient><clipPath id="a"><path fill="#fff" d="M0 0h131v36H0z"/></clipPath></defs></svg>