<svg width="245" height="48" fill="none" xmlns="http://www.w3.org/2000/svg"><path d="M27.191 1.221C24.784.865 22.8.801 20.75.833c-2.375 0-4.75.064-7.125.097-1.562 0-2.212.875-2.212 2.43-.033 1.75 0 3.5-.033 5.25-.032 2.138-1.106 3.24-3.253 3.272-1.92.032-3.807 0-5.727 0-1.691.032-2.342.68-2.375 2.398a194.165 194.165 0 0 0 0 6.156c.033 1.685.684 2.3 2.44 2.3 2.115.033 4.23.033 6.312 0 1.627-.032 2.278-.648 2.278-2.268.032-1.944-.033-3.888.032-5.832.033-1.814 1.009-2.787 2.83-2.787h1.725c1.497 0 2.668-.032 3.84-.032 1.594 0 3.188 0 4.814.065h.196c3.188.065 5.596 2.56 5.53 5.54-.064 3.046-2.472 5.314-5.693 5.347h-1.822c-1.854-.065-3.709-.032-5.563 0H14.08a.455.455 0 0 0-.195.065h-.26c-1.562 0-2.212.875-2.212 2.43-.033 1.75 0 3.5-.033 5.25-.032 2.138-1.106 3.24-3.253 3.272-1.92.032-3.807 0-5.727 0-1.691.032-2.342.68-2.375 2.398a194.165 194.165 0 0 0 0 6.156c.033 1.685.684 2.3 2.44 2.3 2.115.033 4.23.033 6.312 0 1.627-.032 2.278-.648 2.278-2.268.032-1.944-.033-3.888.032-5.832.033-1.782.976-2.722 2.7-2.787 3.32.065 6.605.065 9.924 0h.553v-.032h.358c8.524-.162 15.682-6.643 16.365-14.678.748-8.684-5.173-16.59-13.795-17.822Z" fill="url(#a)"/><path d="M175.877.833h-1.302v43.29h1.302V.832Z" fill="url(#b)"/><path d="M187.426 4.624a4 4 0 0 1 .358-1.685c.228-.486.52-.907.911-1.199a4.168 4.168 0 0 1 2.635-.907c.879 0 1.627.194 2.213.583v1.166c-.554-.42-1.237-.648-2.05-.648-.781 0-1.432.227-2.017.68-.553.454-.846 1.103-.846 1.977 0 .875.26 1.523.846 1.977.553.454 1.203.68 1.984.68.814 0 1.529-.194 2.18-.583v1.199c-.683.324-1.464.486-2.342.486-1.041 0-1.952-.324-2.701-.972-.813-.648-1.171-1.588-1.171-2.754Zm8.427 2.722c-.748-.68-1.139-1.588-1.139-2.755 0-1.166.391-2.073 1.139-2.754.748-.68 1.659-1.004 2.7-1.004 1.042 0 1.953.324 2.701 1.004.748.68 1.139 1.588 1.139 2.754 0 1.167-.391 2.074-1.139 2.755-.748.68-1.659 1.004-2.701 1.004a4.031 4.031 0 0 1-2.7-1.004Zm4.587-.843c.488-.486.749-1.102.749-1.912 0-.81-.261-1.458-.749-1.911-.488-.486-1.138-.713-1.887-.713-.748 0-1.399.227-1.887.713s-.748 1.101-.748 1.911.26 1.458.748 1.912c.488.486 1.139.713 1.887.713.749 0 1.367-.26 1.887-.713Zm8.915-.259c0 .68-.293 1.166-.846 1.555-.586.356-1.366.55-2.375.55s-1.887-.194-2.635-.55V6.665c.715.389 1.561.583 2.505.583 1.464 0 2.18-.389 2.18-1.134 0-.68-.521-1.037-1.594-1.037h-1.562V3.975h1.562c.943 0 1.431-.291 1.431-.94 0-.388-.195-.647-.553-.842-.358-.194-.846-.291-1.432-.291a5.62 5.62 0 0 0-2.44.55v-1.1A6.317 6.317 0 0 1 206.167.8c.976 0 1.724.194 2.245.55.52.357.78.876.78 1.524 0 .421-.13.777-.358 1.069-.227.292-.553.454-.976.55.423.098.781.325 1.074.616.26.325.423.68.423 1.135Zm2.049 3.856h-1.171V7.086h.944c.846-1.49 1.269-3.499 1.236-6.091h5.368v6.091h1.041V10.1h-1.171V8.156h-6.247V10.1Zm2.148-8.036c-.065 1.944-.423 3.63-1.074 4.99h4.099v-4.99h-3.025Zm12.688 4.601c0 .357.196.551.553.551.163 0 .358-.032.554-.097v.972a2.836 2.836 0 0 1-.911.162c-.684 0-1.139-.292-1.302-.875-.781.648-1.692.94-2.798.94-.683 0-1.301-.195-1.789-.551-.488-.357-.749-.907-.749-1.62 0-.843.326-1.458.944-1.847.618-.39 1.399-.583 2.31-.583.651 0 1.334.064 1.985.226v-.259c0-.55-.196-.972-.553-1.296-.358-.324-.879-.486-1.497-.486a6.47 6.47 0 0 0-2.603.55V1.32c.944-.324 1.855-.486 2.733-.486.976 0 1.757.259 2.31.777.553.519.846 1.264.846 2.269v2.786h-.033Zm-5.205-.55c0 .388.162.712.455.907.293.194.684.291 1.106.291.977 0 1.79-.356 2.441-1.037V4.98a10.008 10.008 0 0 0-1.822-.194c-.619 0-1.139.097-1.562.324-.39.162-.618.518-.618 1.004Zm7.092-1.524c0-1.166.358-2.106 1.074-2.754a3.525 3.525 0 0 1 2.505-1.004c.879 0 1.595.227 2.18.648.586.421.944.972 1.139 1.62.195.648.195 1.296.032 2.009h-5.726c.065.713.391 1.231.944 1.588.553.356 1.236.55 2.017.55.878 0 1.659-.194 2.375-.583v1.167c-.683.356-1.529.518-2.538.518-1.138 0-2.082-.324-2.83-.972-.781-.648-1.172-1.588-1.172-2.787Zm5.857-.518c.032-.194 0-.421-.033-.648a2.156 2.156 0 0 0-.325-.68 1.575 1.575 0 0 0-.716-.551c-.325-.162-.683-.227-1.106-.227-.651 0-1.204.194-1.692.55-.488.39-.716.908-.781 1.556h4.653Zm3.969 4.083h-1.139V.995h1.301l2.603 3.953 2.603-3.953h1.301v7.16h-1.138V2.778l-2.343 3.532h-.911l-2.342-3.532v5.379h.065Zm-49.388 17.043c-.749-.68-1.139-1.588-1.139-2.754 0-1.167.39-2.074 1.139-2.755.748-.68 1.659-1.004 2.7-1.004 1.041 0 1.952.324 2.701 1.004.748.68 1.138 1.588 1.138 2.755 0 1.166-.39 2.073-1.138 2.754-.749.68-1.66 1.004-2.701 1.004-1.074 0-1.952-.324-2.7-1.004Zm4.555-.843c.488-.486.748-1.101.748-1.911s-.26-1.459-.748-1.912c-.488-.486-1.139-.713-1.887-.713-.749 0-1.399.227-1.887.713s-.749 1.101-.749 1.912c0 .81.261 1.458.749 1.911.488.486 1.138.713 1.887.713.78 0 1.399-.227 1.887-.713Zm8.557 4.958h-1.204v-3.11c-1.204-.033-2.213-.39-3.026-1.07-.781-.68-1.204-1.588-1.204-2.69 0-1.101.391-2.008 1.204-2.689.781-.68 1.789-1.037 3.026-1.07v-3.11h1.204v3.11c1.203.033 2.212.39 3.025 1.07.781.68 1.204 1.588 1.204 2.69 0 1.101-.39 2.008-1.204 2.689-.781.68-1.789 1.037-3.025 1.07v3.11Zm-3.384-8.814c-.553.486-.813 1.134-.813 1.945 0 .81.26 1.458.813 1.944.553.486 1.269.745 2.18.777v-5.41c-.911.032-1.627.29-2.18.744Zm3.384-.745v5.411c.911-.032 1.659-.291 2.179-.777.553-.486.814-1.134.814-1.944s-.261-1.459-.814-1.945c-.52-.453-1.268-.712-2.179-.745Zm6.929 6.287h-1.008V18.88h1.204v5.216l4.392-5.216h1.009v7.16h-1.204v-5.216l-4.393 5.217Zm7.321-3.565c0-.616.13-1.199.358-1.685.228-.486.52-.907.911-1.199a4.169 4.169 0 0 1 2.635-.907c.879 0 1.627.194 2.213.583v1.167c-.554-.422-1.237-.648-2.05-.648-.781 0-1.432.226-2.017.68-.553.454-.846 1.102-.846 1.977s.26 1.523.846 1.976c.553.454 1.203.68 1.984.68.814 0 1.529-.194 2.18-.583v1.2c-.683.323-1.464.485-2.342.485-1.042 0-1.952-.324-2.701-.972-.781-.648-1.171-1.555-1.171-2.754Zm11.322 3.565h-3.416V18.88h1.203v2.495h2.213c.846 0 1.529.226 2.05.648a2.14 2.14 0 0 1 .748 1.652c0 .68-.26 1.232-.748 1.653-.488.486-1.172.713-2.05.713Zm-2.213-3.597v2.495h2.05c.553 0 .944-.097 1.269-.324.293-.194.456-.518.456-.94 0-.421-.163-.745-.456-.94-.293-.194-.716-.323-1.269-.323h-2.05v.032Zm7.581 3.597h-1.204V18.88h1.204v7.16ZM194.91 40.557c0 1.102-.326 1.977-1.009 2.593-.683.615-1.562.94-2.668.94s-2.017-.357-2.7-1.102c-.683-.746-1.041-1.75-1.041-3.078 0-1.167.195-2.14.585-2.981.391-.843.944-1.459 1.627-1.88.456-.291.944-.486 1.432-.648.488-.162.911-.26 1.236-.292.325-.032.651-.13 1.008-.259.358-.13.651-.291.879-.518v1.264a3.065 3.065 0 0 1-1.041.453c-.423.097-.879.194-1.367.324s-.976.324-1.431.583c-.456.26-.814.616-1.041 1.005-.261.421-.456.907-.651 1.458.26-.389.618-.713 1.106-.972.488-.26 1.009-.357 1.529-.357.976 0 1.79.324 2.506.973.715.615 1.041 1.458 1.041 2.494Zm-6.182 0c0 .681.228 1.264.683 1.718.456.453 1.074.68 1.822.68.781 0 1.367-.227 1.822-.68.456-.454.683-1.005.683-1.718 0-.68-.227-1.263-.683-1.717-.455-.453-1.041-.68-1.822-.68-.716 0-1.301.227-1.789.713-.488.518-.716 1.069-.716 1.684Zm11.355 3.338h-3.416v-7.161h1.203v2.495h2.213c.846 0 1.529.227 2.049.648a2.14 2.14 0 0 1 .749 1.652c0 .681-.261 1.232-.749 1.653-.52.518-1.203.713-2.049.713Zm-2.245-3.564v2.495h2.049c.554 0 .944-.098 1.269-.324.293-.195.456-.519.456-.94 0-.421-.163-.745-.456-.94-.292-.194-.715-.324-1.269-.324h-2.049v.033Zm7.613 3.564h-1.204v-7.161h1.204v7.16Zm1.692-3.532c0-.616.13-1.199.357-1.685.228-.486.521-.907.911-1.199a4.16 4.16 0 0 1 2.636-.907c.878 0 1.626.194 2.212.583v1.167c-.553-.422-1.236-.648-2.05-.648a3.16 3.16 0 0 0-2.017.68c-.553.454-.846 1.102-.846 1.977 0 .874.293 1.522.846 1.976.553.454 1.204.68 1.985.68.813 0 1.529-.194 2.18-.583v1.2c-.684.323-1.464.485-2.343.485-1.041 0-1.952-.324-2.7-.972-.781-.648-1.171-1.555-1.171-2.754Zm10.931 3.532h-1.203v-6.06h-2.636v-1.101h6.475v1.102h-2.636v6.059Zm5.075-5.93c.814-.907 1.79-1.36 2.896-1.36 1.041 0 1.887.356 2.57 1.069.684.713 1.009 1.62 1.009 2.69 0 1.069-.325 1.976-1.009 2.689-.683.713-1.529 1.069-2.57 1.069-1.139 0-2.05-.421-2.798-1.264V47.2h-1.204V36.767h1.074v1.198h.032Zm4.555 4.278c.488-.486.716-1.135.716-1.912 0-.81-.228-1.426-.716-1.912a2.435 2.435 0 0 0-1.789-.745c-.618 0-1.139.162-1.627.518a3.046 3.046 0 0 0-1.041 1.264v1.782c.228.486.553.907 1.041 1.264a2.781 2.781 0 0 0 1.627.518 2.597 2.597 0 0 0 1.789-.777Zm4.295.842c-.748-.68-1.138-1.588-1.138-2.754 0-1.167.39-2.074 1.138-2.755.749-.68 1.66-1.004 2.701-1.004 1.041 0 1.952.324 2.7 1.004.748.68 1.139 1.588 1.139 2.755 0 1.166-.391 2.073-1.139 2.754-.748.68-1.659 1.004-2.7 1.004-1.041 0-1.952-.324-2.701-1.004Zm4.588-.843c.488-.486.748-1.101.748-1.911s-.26-1.459-.748-1.912c-.488-.486-1.139-.713-1.887-.713-.749 0-1.399.227-1.887.713s-.749 1.102-.749 1.912c0 .81.261 1.458.749 1.911.488.486 1.138.713 1.887.713.748 0 1.366-.227 1.887-.713Z" fill="#282827"/><path fill-rule="evenodd" clip-rule="evenodd" d="m148.287 16.127 14.738-.098v4.083h-20.106V.995h20.106l.033 4.05h-14.771v3.273h12.558v3.985h-12.558v3.824ZM139.535.995v19.117h-5.401V9.808l-5.043 10.304h-5.141l-5.4-10.498v10.498h-5.369V.995h6.312l7.028 13.933L133.32.995h6.215Z" fill="#282827"/><path d="M109.765.995h-5.368v19.117h5.368V.995Z" fill="#282827"/><path fill-rule="evenodd" clip-rule="evenodd" d="M95.417 13.631c1.692-.356 3.025-1.069 3.969-2.138.976-1.07 1.432-2.43 1.432-4.05v-.098c0-1.263-.358-2.365-1.042-3.337-.683-.94-1.659-1.685-2.895-2.236-1.237-.518-2.668-.81-4.262-.81H78.596v19.117h5.173V13.89h5.433l5.304 6.19h6.442l-5.531-6.449Zm-1.562-3.79c-.52.064-1.269.129-2.212.129h-7.841V4.915c3.09 0 5.335 0 6.767-.065.293-.032.65-.032 1.074-.032.943 0 1.691.032 2.212.13.52.097.944.324 1.269.68.325.389.488.972.488 1.814 0 .778-.163 1.329-.488 1.718a1.9 1.9 0 0 1-1.269.68ZM74.204 4.04c-.683-.972-1.627-1.717-2.896-2.235-1.236-.519-2.668-.81-4.262-.81H53.024v19.117h5.4v-6.189h9.11c2.44 0 4.36-.55 5.694-1.652 1.334-1.102 2.017-2.722 2.017-4.796v-.097c0-1.296-.358-2.398-1.041-3.337Zm-4.49 5.153c-.358.356-.78.583-1.301.648-.52.064-1.237.13-2.18.13h-7.841V4.914h7.841c.91 0 1.627.033 2.18.13.52.097.976.324 1.334.68.358.357.52.973.52 1.783-.032.777-.195 1.328-.553 1.685Zm39.856 20.542c-1.041-1.49-2.473-2.69-4.295-3.532-1.822-.842-3.871-1.296-6.149-1.296-2.18 0-4.197.422-6.051 1.296-1.855.843-3.319 2.042-4.392 3.532-1.074 1.523-1.627 3.176-1.627 5.055 0 1.847.553 3.5 1.627 5.022 1.073 1.49 2.537 2.657 4.392 3.532a14.478 14.478 0 0 0 6.051 1.296c2.278 0 4.327-.42 6.149-1.296 1.822-.842 3.254-2.009 4.295-3.5 1.041-1.49 1.562-3.175 1.562-5.022 0-1.911-.521-3.596-1.562-5.087Zm-4.88 8.133c-.618.843-1.399 1.523-2.408 1.944a7.32 7.32 0 0 1-3.123.68 7.467 7.467 0 0 1-3.156-.68 5.75 5.75 0 0 1-2.408-1.976c-.618-.875-.91-1.912-.91-3.078 0-1.167.292-2.171.878-3.046.585-.875 1.399-1.523 2.375-1.977a7.614 7.614 0 0 1 3.188-.68c1.106 0 2.148.227 3.124.68a6.031 6.031 0 0 1 2.407 2.01c.618.874.911 1.879.911 3.045.033 1.199-.26 2.203-.878 3.078Zm32.469-8.133c-1.041-1.49-2.472-2.69-4.294-3.532-1.822-.842-3.872-1.296-6.149-1.296-2.18 0-4.197.422-6.052 1.296-1.854.843-3.318 2.042-4.392 3.532-1.074 1.523-1.627 3.176-1.627 5.055 0 1.847.553 3.5 1.627 5.022 1.106 1.49 2.57 2.657 4.392 3.532a14.481 14.481 0 0 0 6.052 1.296c2.277 0 4.327-.42 6.149-1.296 1.822-.842 3.253-2.009 4.294-3.5 1.042-1.49 1.562-3.175 1.562-5.022 0-1.911-.52-3.596-1.562-5.087Zm-4.88 8.133c-.618.843-1.399 1.523-2.375 1.944a7.32 7.32 0 0 1-3.123.68 7.728 7.728 0 0 1-3.189-.68 5.75 5.75 0 0 1-2.407-1.976c-.586-.875-.911-1.912-.911-3.078 0-1.167.293-2.171.878-3.046.586-.875 1.399-1.523 2.375-1.977a7.617 7.617 0 0 1 3.189-.68 7.32 7.32 0 0 1 3.123.68 5.726 5.726 0 0 1 2.375 2.01c.618.874.911 1.879.911 3.045a4.89 4.89 0 0 1-.846 3.078Zm29.412-7.971c-.911-1.426-2.212-2.527-3.872-3.337-1.691-.81-3.644-1.232-5.856-1.232h-9.695v18.793h9.728c2.212 0 4.164-.42 5.823-1.23 1.692-.81 2.961-1.945 3.872-3.338.911-1.426 1.366-3.014 1.366-4.796 0-1.814-.455-3.434-1.366-4.86Zm-5.433 8.554c-1.074.843-2.408 1.264-4.035 1.264h-4.685V29.702h4.685a6.09 6.09 0 0 1 2.831.68 5.84 5.84 0 0 1 2.05 1.815c.52.778.748 1.62.748 2.528-.033 1.652-.553 2.884-1.594 3.726Z" fill="#282827"/><path d="m79.54 25.328-3.97 12.929-3.968-12.929h-5.336l-3.97 12.929-3.969-12.929h-5.335l5.758 18.729h7.093l3.09-10.045 3.092 10.045h7.092l5.759-18.729H79.54Z" fill="#282827"/><defs><linearGradient id="a" x1="-2.235" y1="41.186" x2="34.635" y2="4.165" gradientUnits="userSpaceOnUse"><stop stop-color="#46B17A"/><stop offset=".506" stop-color="#00AF9F"/><stop offset="1" stop-color="#45BEDF"/></linearGradient><linearGradient id="b" x1="175.237" y1="44.136" x2="175.237" y2=".843" gradientUnits="userSpaceOnUse"><stop stop-color="#46B17A"/><stop offset=".506" stop-color="#00AF9F"/><stop offset="1" stop-color="#45BEDF"/></linearGradient></defs></svg>