<svg width="30" height="34" viewBox="0 0 30 34" fill="none" xmlns="http://www.w3.org/2000/svg">
<path fill-rule="evenodd" clip-rule="evenodd" d="M13.9521 3.537C14.6001 3.15986 15.3999 3.15987 16.0479 3.537L13.9521 3.537ZM13.9521 3.537L3.95221 9.35695C3.31126 9.73009 2.91669 10.4157 2.91669 11.1566V22.8433C2.91669 23.5839 3.31091 24.2702 3.95313 24.6452L13.9521 30.4646C14.6001 30.8418 15.3999 30.8418 16.0479 30.4646L26.0478 24.6447C26.6888 24.2716 27.0834 23.586 27.0834 22.845V11.1566C27.0834 10.4156 26.6888 9.73008 26.0478 9.35695L16.0479 3.537M17.3054 1.3763L27.3055 7.1963C28.7144 8.0165 29.5834 9.52432 29.5834 11.1566V22.845C29.5834 24.4773 28.7145 25.9851 27.3055 26.8053L17.3055 32.6253C15.8801 33.4549 14.1199 33.4549 12.6946 32.6253L2.69459 26.8053C1.28704 25.9837 0.416687 24.4759 0.416687 22.8433V11.1566C0.416687 9.52432 1.2855 8.01655 2.6945 7.19635L12.6946 1.3763C14.1199 0.54677 15.8801 0.546767 17.3054 1.3763Z" fill="#45BEDF"/>
<path fill-rule="evenodd" clip-rule="evenodd" d="M15 15.75C15.6904 15.75 16.25 16.3096 16.25 17V32C16.25 32.6903 15.6904 33.25 15 33.25C14.3097 33.25 13.75 32.6903 13.75 32V17C13.75 16.3096 14.3097 15.75 15 15.75Z" fill="#45BEDF"/>
<path fill-rule="evenodd" clip-rule="evenodd" d="M28.9993 8.92545C29.3442 9.52347 29.139 10.2879 28.541 10.6328L15.6244 18.0828C15.0263 18.4277 14.2619 18.2225 13.917 17.6245C13.5721 17.0265 13.7773 16.2621 14.3753 15.9172L27.292 8.46718C27.89 8.12226 28.6544 8.32744 28.9993 8.92545Z" fill="#45BEDF"/>
<path fill-rule="evenodd" clip-rule="evenodd" d="M1.00035 8.92545C1.34527 8.32744 2.10967 8.12226 2.70769 8.46718L15.6244 15.9172C16.2224 16.2621 16.4275 17.0265 16.0826 17.6245C15.7377 18.2225 14.9733 18.4277 14.3753 18.0828L1.45862 10.6328C0.860609 10.2879 0.655435 9.52347 1.00035 8.92545Z" fill="#45BEDF"/>
</svg>
