<svg width="34" height="34" viewBox="0 0 34 34" fill="none" xmlns="http://www.w3.org/2000/svg">
<path fill-rule="evenodd" clip-rule="evenodd" d="M10.3307 3.24365C9.17934 3.24365 8.24598 4.17701 8.24598 5.32837V13.6652C8.24598 14.3555 7.68634 14.9152 6.99598 14.9152C6.30562 14.9152 5.74598 14.3555 5.74598 13.6652V5.32837C5.74598 2.7963 7.79863 0.743652 10.3307 0.743652H28.6717C31.2037 0.743652 33.2564 2.7963 33.2564 5.32837V28.6714C33.2564 31.2035 31.2037 33.2562 28.6717 33.2562H22.0022C21.3119 33.2562 20.7522 32.6965 20.7522 32.0062C20.7522 31.3158 21.3119 30.7562 22.0022 30.7562H28.6717C29.823 30.7562 30.7564 29.8228 30.7564 28.6714V5.32837C30.7564 4.17701 29.823 3.24365 28.6717 3.24365H10.3307Z" fill="#45BEDF"/>
<path fill-rule="evenodd" clip-rule="evenodd" d="M12.4154 8.6631C12.4154 7.97274 12.9751 7.4131 13.6654 7.4131H25.337C26.0273 7.4131 26.587 7.97274 26.587 8.6631C26.587 9.35345 26.0273 9.9131 25.337 9.9131H13.6654C12.9751 9.9131 12.4154 9.35345 12.4154 8.6631Z" fill="#45BEDF"/>
<path fill-rule="evenodd" clip-rule="evenodd" d="M15.7501 15.3325C15.7501 14.6422 16.3098 14.0825 17.0001 14.0825H25.337C26.0273 14.0825 26.587 14.6422 26.587 15.3325C26.587 16.0229 26.0273 16.5825 25.337 16.5825H17.0001C16.3098 16.5825 15.7501 16.0229 15.7501 15.3325Z" fill="#45BEDF"/>
<path fill-rule="evenodd" clip-rule="evenodd" d="M20.7522 22.002C20.7522 21.3116 21.3119 20.752 22.0022 20.752H25.337C26.0273 20.752 26.587 21.3116 26.587 22.002C26.587 22.6923 26.0273 23.252 25.337 23.252H22.0022C21.3119 23.252 20.7522 22.6923 20.7522 22.002Z" fill="#45BEDF"/>
<path fill-rule="evenodd" clip-rule="evenodd" d="M3.2439 24.044V30.7145H4.91397V24.044H3.2439ZM5.23024 31.0434V30.7149C5.23685 30.7146 5.2435 30.7145 5.2502 30.7146L5.24494 31.0442L5.23024 31.0434ZM5.23024 31.0941V31.9645L5.24414 31.0941H5.23024ZM5.22228 33.2145H2.92595C2.34723 33.2145 1.79222 32.9846 1.38301 32.5754C0.973791 32.1661 0.743896 31.6111 0.743896 31.0324V23.726C0.743896 23.1473 0.973791 22.5923 1.38301 22.1831C1.79222 21.7739 2.34723 21.544 2.92595 21.544H5.24986C5.83302 21.5531 6.38865 21.7938 6.79449 22.2126C7.19753 22.6286 7.42003 23.1867 7.41397 23.7656V31.0941C7.41397 31.1167 7.41335 31.1393 7.41213 31.1619C7.3491 32.3225 6.38315 33.2267 5.22228 33.2145Z" fill="#45BEDF"/>
<path fill-rule="evenodd" clip-rule="evenodd" d="M10.3084 20.3941L7.22823 25.4227C6.86764 26.0114 6.09808 26.1963 5.50939 25.8357C4.92069 25.4751 4.73578 24.7056 5.09637 24.1169L8.17875 19.0847C8.99747 17.7531 10.5998 17.1256 12.105 17.5471C13.6103 17.9685 14.6538 19.3368 14.662 20.9L14.662 20.9065L14.662 22.3243H15.9297C17.105 22.3249 18.2025 22.914 18.852 23.8935C19.4262 24.7574 19.5928 25.8298 19.3075 26.8273L18.087 31.099C17.7267 32.3547 16.5785 33.2216 15.2722 33.2228H9.30027C8.52225 33.2228 7.769 32.9513 7.16989 32.456L7.16703 32.4536L5.36294 30.953C4.83219 30.5115 4.75982 29.7234 5.2013 29.1926C5.64277 28.6619 6.43091 28.5895 6.96166 29.031L8.76288 30.5292C8.91415 30.6539 9.10491 30.7228 9.30027 30.7228L15.27 30.7228C15.4617 30.7224 15.6306 30.5953 15.6835 30.4111L16.9037 26.1405C16.9876 25.8471 16.9388 25.5312 16.7697 25.2771L16.7685 25.2753C16.582 24.9938 16.2668 24.8245 15.9291 24.8243H13.412C12.7216 24.8243 12.162 24.2647 12.162 23.5743V20.9105C12.1585 20.4646 11.8605 20.0747 11.431 19.9545C11.0009 19.834 10.5426 20.0138 10.3084 20.3941Z" fill="#45BEDF"/>
<path fill-rule="evenodd" clip-rule="evenodd" d="M10.3307 3.24365C9.17934 3.24365 8.24598 4.17701 8.24598 5.32837V13.6652C8.24598 14.3555 7.68634 14.9152 6.99598 14.9152C6.30562 14.9152 5.74598 14.3555 5.74598 13.6652V5.32837C5.74598 2.7963 7.79863 0.743652 10.3307 0.743652H28.6717C31.2037 0.743652 33.2564 2.7963 33.2564 5.32837V28.6714C33.2564 31.2035 31.2037 33.2562 28.6717 33.2562H22.0022C21.3119 33.2562 20.7522 32.6965 20.7522 32.0062C20.7522 31.3158 21.3119 30.7562 22.0022 30.7562H28.6717C29.823 30.7562 30.7564 29.8228 30.7564 28.6714V5.32837C30.7564 4.17701 29.823 3.24365 28.6717 3.24365H10.3307Z" fill="#45BEDF"/>
<path fill-rule="evenodd" clip-rule="evenodd" d="M12.4154 8.6631C12.4154 7.97274 12.9751 7.4131 13.6654 7.4131H25.337C26.0273 7.4131 26.587 7.97274 26.587 8.6631C26.587 9.35345 26.0273 9.9131 25.337 9.9131H13.6654C12.9751 9.9131 12.4154 9.35345 12.4154 8.6631Z" fill="#45BEDF"/>
<path fill-rule="evenodd" clip-rule="evenodd" d="M15.7501 15.3325C15.7501 14.6422 16.3098 14.0825 17.0001 14.0825H25.337C26.0273 14.0825 26.587 14.6422 26.587 15.3325C26.587 16.0229 26.0273 16.5825 25.337 16.5825H17.0001C16.3098 16.5825 15.7501 16.0229 15.7501 15.3325Z" fill="#45BEDF"/>
<path fill-rule="evenodd" clip-rule="evenodd" d="M20.7522 22.002C20.7522 21.3116 21.3119 20.752 22.0022 20.752H25.337C26.0273 20.752 26.587 21.3116 26.587 22.002C26.587 22.6923 26.0273 23.252 25.337 23.252H22.0022C21.3119 23.252 20.7522 22.6923 20.7522 22.002Z" fill="#45BEDF"/>
<path fill-rule="evenodd" clip-rule="evenodd" d="M3.2439 24.044V30.7145H4.91397V24.044H3.2439ZM5.23024 31.0434V30.7149C5.23685 30.7146 5.2435 30.7145 5.2502 30.7146L5.24494 31.0442L5.23024 31.0434ZM5.23024 31.0941V31.9645L5.24414 31.0941H5.23024ZM5.22228 33.2145H2.92595C2.34723 33.2145 1.79222 32.9846 1.38301 32.5754C0.973791 32.1661 0.743896 31.6111 0.743896 31.0324V23.726C0.743896 23.1473 0.973791 22.5923 1.38301 22.1831C1.79222 21.7739 2.34723 21.544 2.92595 21.544H5.24986C5.83302 21.5531 6.38865 21.7938 6.79449 22.2126C7.19753 22.6286 7.42003 23.1867 7.41397 23.7656V31.0941C7.41397 31.1167 7.41335 31.1393 7.41213 31.1619C7.3491 32.3225 6.38315 33.2267 5.22228 33.2145Z" fill="#45BEDF"/>
<path fill-rule="evenodd" clip-rule="evenodd" d="M10.3084 20.3941L7.22823 25.4227C6.86764 26.0114 6.09808 26.1963 5.50939 25.8357C4.92069 25.4751 4.73578 24.7056 5.09637 24.1169L8.17875 19.0847C8.99747 17.7531 10.5998 17.1256 12.105 17.5471C13.6103 17.9685 14.6538 19.3368 14.662 20.9L14.662 20.9065L14.662 22.3243H15.9297C17.105 22.3249 18.2025 22.914 18.852 23.8935C19.4262 24.7574 19.5928 25.8298 19.3075 26.8273L18.087 31.099C17.7267 32.3547 16.5785 33.2216 15.2722 33.2228H9.30027C8.52225 33.2228 7.769 32.9513 7.16989 32.456L7.16703 32.4536L5.36294 30.953C4.83219 30.5115 4.75982 29.7234 5.2013 29.1926C5.64277 28.6619 6.43091 28.5895 6.96166 29.031L8.76288 30.5292C8.91415 30.6539 9.10491 30.7228 9.30027 30.7228L15.27 30.7228C15.4617 30.7224 15.6306 30.5953 15.6835 30.4111L16.9037 26.1405C16.9876 25.8471 16.9388 25.5312 16.7697 25.2771L16.7685 25.2753C16.582 24.9938 16.2668 24.8245 15.9291 24.8243H13.412C12.7216 24.8243 12.162 24.2647 12.162 23.5743V20.9105C12.1585 20.4646 11.8605 20.0747 11.431 19.9545C11.0009 19.834 10.5426 20.0138 10.3084 20.3941Z" fill="#45BEDF"/>
</svg>
