<svg width="36" height="32" viewBox="0 0 36 32" fill="none" xmlns="http://www.w3.org/2000/svg">
<path fill-rule="evenodd" clip-rule="evenodd" d="M9.95616 26.3773C9.41355 25.8347 8.53446 25.8343 7.98988 26.378C7.44862 26.9184 7.44721 27.7986 7.99131 28.3436C8.53259 28.8857 9.41225 28.8868 9.95616 28.3429C10.4983 27.8016 10.5001 26.9212 9.95616 26.3773ZM11.7239 24.6095C10.2032 23.0888 7.74229 23.0925 6.22354 24.6088C4.70146 26.1284 4.70621 28.5916 6.22211 30.1099C7.74077 31.631 10.2043 31.6301 11.7238 30.1108M11.7238 30.1108C13.2442 28.592 13.2431 26.1287 11.7239 24.6095L11.7238 30.1108Z" fill="#45BEDF"/>
<path fill-rule="evenodd" clip-rule="evenodd" d="M13.4167 1.66675C13.4167 0.976392 13.9764 0.416748 14.6667 0.416748H21.3334C22.9437 0.416748 24.25 1.72306 24.25 3.33341V20.0001C24.25 20.6904 23.6904 21.2501 23 21.2501H1.33337C0.643018 21.2501 0.083374 20.6904 0.083374 20.0001C0.083374 19.3097 0.643018 18.7501 1.33337 18.7501H21.75V3.33341C21.75 3.10377 21.563 2.91675 21.3334 2.91675H14.6667C13.9764 2.91675 13.4167 2.3571 13.4167 1.66675Z" fill="#45BEDF"/>
<path fill-rule="evenodd" clip-rule="evenodd" d="M1.33337 15.4167C2.02373 15.4167 2.58337 15.9764 2.58337 16.6667V25.6934C2.58337 25.9231 2.7704 26.1101 3.00004 26.1101H6.33337C7.02373 26.1101 7.58337 26.6697 7.58337 27.3601C7.58337 28.0504 7.02373 28.6101 6.33337 28.6101H3.00004C1.38968 28.6101 0.083374 27.3038 0.083374 25.6934V16.6667C0.083374 15.9764 0.643018 15.4167 1.33337 15.4167Z" fill="#45BEDF"/>
<path fill-rule="evenodd" clip-rule="evenodd" d="M21.75 6.66675C21.75 5.97639 22.3097 5.41675 23 5.41675H30.205C31.3967 5.41675 32.471 6.14197 32.9128 7.252L35.5896 13.9425C35.8041 14.481 35.9167 15.0578 35.9167 15.6417V25.5551C35.9167 27.1654 34.6104 28.4717 33 28.4717H29.9484C29.258 28.4717 28.6984 27.9121 28.6984 27.2217C28.6984 26.5314 29.258 25.9717 29.9484 25.9717H33C33.2297 25.9717 33.4167 25.7847 33.4167 25.5551V15.6417C33.4167 15.3792 33.3661 15.1163 33.2674 14.8683L30.5912 8.17942L30.5901 8.17668C30.5282 8.02088 30.3762 7.91675 30.205 7.91675H23C22.3097 7.91675 21.75 7.3571 21.75 6.66675Z" fill="#45BEDF"/>
<path fill-rule="evenodd" clip-rule="evenodd" d="M10.3667 27.3667C10.3667 26.6764 10.9264 26.1167 11.6167 26.1167H24.6667C25.3571 26.1167 25.9167 26.6764 25.9167 27.3667C25.9167 28.0571 25.3571 28.6167 24.6667 28.6167H11.6167C10.9264 28.6167 10.3667 28.0571 10.3667 27.3667Z" fill="#45BEDF"/>
<path fill-rule="evenodd" clip-rule="evenodd" d="M26.75 11.6667C26.75 10.9764 27.3097 10.4167 28 10.4167H33.3334C34.0237 10.4167 34.5834 10.9764 34.5834 11.6667C34.5834 12.3571 34.0237 12.9167 33.3334 12.9167H29.25V17.0834H34.6667C35.3571 17.0834 35.9167 17.6431 35.9167 18.3334C35.9167 19.0238 35.3571 19.5834 34.6667 19.5834H28C27.3097 19.5834 26.75 19.0238 26.75 18.3334V11.6667Z" fill="#45BEDF"/>
<path fill-rule="evenodd" clip-rule="evenodd" d="M0.083374 1.66675C0.083374 0.976392 0.643018 0.416748 1.33337 0.416748H9.66671C10.3571 0.416748 10.9167 0.976392 10.9167 1.66675C10.9167 2.3571 10.3571 2.91675 9.66671 2.91675H1.33337C0.643018 2.91675 0.083374 2.3571 0.083374 1.66675Z" fill="#45BEDF"/>
<path fill-rule="evenodd" clip-rule="evenodd" d="M0.083374 6.66675C0.083374 5.97639 0.643018 5.41675 1.33337 5.41675H6.33337C7.02373 5.41675 7.58337 5.97639 7.58337 6.66675C7.58337 7.3571 7.02373 7.91675 6.33337 7.91675H1.33337C0.643018 7.91675 0.083374 7.3571 0.083374 6.66675Z" fill="#45BEDF"/>
<path fill-rule="evenodd" clip-rule="evenodd" d="M0.083374 11.6667C0.083374 10.9764 0.643018 10.4167 1.33337 10.4167H3.00004C3.6904 10.4167 4.25004 10.9764 4.25004 11.6667C4.25004 12.3571 3.6904 12.9167 3.00004 12.9167H1.33337C0.643018 12.9167 0.083374 12.3571 0.083374 11.6667Z" fill="#45BEDF"/>
<path fill-rule="evenodd" clip-rule="evenodd" d="M9.95616 26.3773C9.41355 25.8347 8.53446 25.8343 7.98988 26.378C7.44862 26.9184 7.44721 27.7986 7.99131 28.3436C8.53259 28.8857 9.41225 28.8868 9.95616 28.3429C10.4983 27.8016 10.5001 26.9212 9.95616 26.3773ZM11.7239 24.6095C10.2032 23.0888 7.74229 23.0925 6.22354 24.6088C4.70146 26.1284 4.70621 28.5916 6.22211 30.1099C7.74077 31.631 10.2043 31.6301 11.7238 30.1108M11.7238 30.1108C13.2442 28.592 13.2431 26.1287 11.7239 24.6095L11.7238 30.1108Z" fill="#45BEDF"/>
<path fill-rule="evenodd" clip-rule="evenodd" d="M13.4167 1.66675C13.4167 0.976392 13.9764 0.416748 14.6667 0.416748H21.3334C22.9437 0.416748 24.25 1.72306 24.25 3.33341V20.0001C24.25 20.6904 23.6904 21.2501 23 21.2501H1.33337C0.643018 21.2501 0.083374 20.6904 0.083374 20.0001C0.083374 19.3097 0.643018 18.7501 1.33337 18.7501H21.75V3.33341C21.75 3.10377 21.563 2.91675 21.3334 2.91675H14.6667C13.9764 2.91675 13.4167 2.3571 13.4167 1.66675Z" fill="#45BEDF"/>
<path fill-rule="evenodd" clip-rule="evenodd" d="M1.33337 15.4167C2.02373 15.4167 2.58337 15.9764 2.58337 16.6667V25.6934C2.58337 25.9231 2.7704 26.1101 3.00004 26.1101H6.33337C7.02373 26.1101 7.58337 26.6697 7.58337 27.3601C7.58337 28.0504 7.02373 28.6101 6.33337 28.6101H3.00004C1.38968 28.6101 0.083374 27.3038 0.083374 25.6934V16.6667C0.083374 15.9764 0.643018 15.4167 1.33337 15.4167Z" fill="#45BEDF"/>
<path fill-rule="evenodd" clip-rule="evenodd" d="M21.75 6.66675C21.75 5.97639 22.3097 5.41675 23 5.41675H30.205C31.3967 5.41675 32.471 6.14197 32.9128 7.252L35.5896 13.9425C35.8041 14.481 35.9167 15.0578 35.9167 15.6417V25.5551C35.9167 27.1654 34.6104 28.4717 33 28.4717H29.9484C29.258 28.4717 28.6984 27.9121 28.6984 27.2217C28.6984 26.5314 29.258 25.9717 29.9484 25.9717H33C33.2297 25.9717 33.4167 25.7847 33.4167 25.5551V15.6417C33.4167 15.3792 33.3661 15.1163 33.2674 14.8683L30.5912 8.17942L30.5901 8.17668C30.5282 8.02088 30.3762 7.91675 30.205 7.91675H23C22.3097 7.91675 21.75 7.3571 21.75 6.66675Z" fill="#45BEDF"/>
<path fill-rule="evenodd" clip-rule="evenodd" d="M10.3667 27.3667C10.3667 26.6764 10.9264 26.1167 11.6167 26.1167H24.6667C25.3571 26.1167 25.9167 26.6764 25.9167 27.3667C25.9167 28.0571 25.3571 28.6167 24.6667 28.6167H11.6167C10.9264 28.6167 10.3667 28.0571 10.3667 27.3667Z" fill="#45BEDF"/>
<path fill-rule="evenodd" clip-rule="evenodd" d="M26.75 11.6667C26.75 10.9764 27.3097 10.4167 28 10.4167H33.3334C34.0237 10.4167 34.5834 10.9764 34.5834 11.6667C34.5834 12.3571 34.0237 12.9167 33.3334 12.9167H29.25V17.0834H34.6667C35.3571 17.0834 35.9167 17.6431 35.9167 18.3334C35.9167 19.0238 35.3571 19.5834 34.6667 19.5834H28C27.3097 19.5834 26.75 19.0238 26.75 18.3334V11.6667Z" fill="#45BEDF"/>
<path fill-rule="evenodd" clip-rule="evenodd" d="M0.083374 1.66675C0.083374 0.976392 0.643018 0.416748 1.33337 0.416748H9.66671C10.3571 0.416748 10.9167 0.976392 10.9167 1.66675C10.9167 2.3571 10.3571 2.91675 9.66671 2.91675H1.33337C0.643018 2.91675 0.083374 2.3571 0.083374 1.66675Z" fill="#45BEDF"/>
<path fill-rule="evenodd" clip-rule="evenodd" d="M0.083374 6.66675C0.083374 5.97639 0.643018 5.41675 1.33337 5.41675H6.33337C7.02373 5.41675 7.58337 5.97639 7.58337 6.66675C7.58337 7.3571 7.02373 7.91675 6.33337 7.91675H1.33337C0.643018 7.91675 0.083374 7.3571 0.083374 6.66675Z" fill="#45BEDF"/>
<path fill-rule="evenodd" clip-rule="evenodd" d="M0.083374 11.6667C0.083374 10.9764 0.643018 10.4167 1.33337 10.4167H3.00004C3.6904 10.4167 4.25004 10.9764 4.25004 11.6667C4.25004 12.3571 3.6904 12.9167 3.00004 12.9167H1.33337C0.643018 12.9167 0.083374 12.3571 0.083374 11.6667Z" fill="#45BEDF"/>
<path fill-rule="evenodd" clip-rule="evenodd" d="M28.2813 26.3773C27.7387 25.8347 26.8596 25.8343 26.315 26.378C25.7738 26.9184 25.7723 27.7986 26.3164 28.3436C26.8577 28.8857 27.7374 28.8868 28.2813 28.3429C28.8235 27.8016 28.8252 26.9212 28.2813 26.3773ZM30.0491 24.6095C28.5283 23.0888 26.0674 23.0925 24.5487 24.6088C23.0266 26.1284 23.0313 28.5916 24.5472 30.1099C26.0659 31.631 28.5295 31.6301 30.0489 30.1108M30.0489 30.1108C31.5694 28.592 31.5683 26.1287 30.0491 24.6095L30.0489 30.1108Z" fill="#45BEDF"/>
<path fill-rule="evenodd" clip-rule="evenodd" d="M28.2813 26.3773C27.7387 25.8347 26.8596 25.8343 26.315 26.378C25.7738 26.9184 25.7723 27.7986 26.3164 28.3436C26.8577 28.8857 27.7374 28.8868 28.2813 28.3429C28.8235 27.8016 28.8252 26.9212 28.2813 26.3773ZM30.0491 24.6095C28.5283 23.0888 26.0674 23.0925 24.5487 24.6088C23.0266 26.1284 23.0313 28.5916 24.5472 30.1099C26.0659 31.631 28.5295 31.6301 30.0489 30.1108M30.0489 30.1108C31.5694 28.592 31.5683 26.1287 30.0491 24.6095L30.0489 30.1108Z" fill="#45BEDF"/>
</svg>
