<svg width="34" height="34" viewBox="0 0 34 34" fill="none" xmlns="http://www.w3.org/2000/svg">
<path fill-rule="evenodd" clip-rule="evenodd" d="M31.5601 4.97839C32.2505 4.97839 32.8101 5.53804 32.8101 6.22839V9.56173C32.8101 10.2521 32.2505 10.8117 31.5601 10.8117H28.2268C27.5364 10.8117 26.9768 10.2521 26.9768 9.56173C26.9768 8.87137 27.5364 8.31173 28.2268 8.31173H30.3101V6.22839C30.3101 5.53804 30.8698 4.97839 31.5601 4.97839Z" fill="#45BEDF"/>
<path fill-rule="evenodd" clip-rule="evenodd" d="M12.0932 13.6834C11.4319 13.6834 10.8948 14.2205 10.8948 14.8818C10.8948 15.5721 10.3352 16.1318 9.64485 16.1318C8.95449 16.1318 8.39485 15.5721 8.39485 14.8818C8.39485 12.8397 10.0512 11.1834 12.0932 11.1834C14.1352 11.1834 15.7915 12.8397 15.7915 14.8818C15.7915 16.0365 15.3097 16.9034 14.6863 17.5648C14.1663 18.1166 13.5016 18.5675 12.9629 18.933C12.9067 18.9711 12.8519 19.0083 12.7988 19.0446C12.1176 19.5096 11.616 19.8902 11.2994 20.3151H14.5415C15.2319 20.3151 15.7915 20.8747 15.7915 21.5651C15.7915 22.2555 15.2319 22.8151 14.5415 22.8151H9.64651C8.95616 22.8151 8.39651 22.2555 8.39651 21.5651C8.39651 19.0337 10.1986 17.7926 11.3892 16.9798C11.4306 16.9516 11.4712 16.9239 11.5111 16.8967C12.109 16.489 12.545 16.1918 12.867 15.8501C13.1615 15.5376 13.2915 15.257 13.2915 14.8818C13.2915 14.2205 12.7545 13.6834 12.0932 13.6834Z" fill="#45BEDF"/>
<path fill-rule="evenodd" clip-rule="evenodd" d="M18.875 11.1851C19.5653 11.1851 20.125 11.7447 20.125 12.4351V15.7638L23.5034 15.8001C24.1937 15.8075 24.7473 16.3732 24.7399 17.0635C24.7325 17.7538 24.1669 18.3074 23.4766 18.3L19.2857 18.2549C18.3727 18.2421 17.625 17.5006 17.625 16.5717V12.4351C17.625 11.7447 18.1846 11.1851 18.875 11.1851Z" fill="#45BEDF"/>
<path fill-rule="evenodd" clip-rule="evenodd" d="M23.4831 11.2834C24.1735 11.2834 24.7331 11.8431 24.7331 12.5334V21.5668C24.7331 22.2571 24.1735 22.8168 23.4831 22.8168C22.7928 22.8168 22.2331 22.2571 22.2331 21.5668V12.5334C22.2331 11.8431 22.7928 11.2834 23.4831 11.2834Z" fill="#45BEDF"/>
<path fill-rule="evenodd" clip-rule="evenodd" d="M0.194977 17.0001C0.194977 7.7198 7.71787 0.195068 17 0.195068C23.4381 0.195068 29.0422 3.73556 31.9275 8.95901C32.2613 9.5633 32.042 10.3238 31.4377 10.6576C30.8334 10.9914 30.0729 10.7721 29.7391 10.1678C27.2811 5.71791 22.5019 2.69507 17 2.69507C9.09875 2.69507 2.69498 9.10034 2.69498 17.0001C2.69498 24.8998 9.09875 31.3051 17 31.3051C24.9012 31.3051 31.305 24.8998 31.305 17.0001C31.305 16.3097 31.8646 15.7501 32.555 15.7501C33.2453 15.7501 33.805 16.3097 33.805 17.0001C33.805 26.2803 26.2821 33.8051 17 33.8051C7.71787 33.8051 0.194977 26.2803 0.194977 17.0001Z" fill="#45BEDF"/>
</svg>
