<svg width="34" height="34" viewBox="0 0 34 34" fill="none" xmlns="http://www.w3.org/2000/svg">
<path fill-rule="evenodd" clip-rule="evenodd" d="M27.7136 12.3273C27.2168 11.4784 26.1944 11.0921 25.2604 11.4002C24.6048 11.6165 23.898 11.2604 23.6817 10.6048C23.4654 9.94917 23.8215 9.24236 24.4771 9.02607C26.5311 8.34845 28.7793 9.19823 29.8715 11.0651L32.6285 15.7794C32.6285 15.7794 32.6285 15.7795 32.6285 15.7794C33.2469 16.8365 33.4166 18.0972 33.0998 19.2802C32.7829 20.4632 32.0058 21.4703 30.9418 22.0768L14.1812 31.6301C12.31 32.6966 10.1931 33.2571 8.03923 33.2562L8.04031 30.7562C9.75966 30.7569 11.4495 30.3095 12.9433 29.4581L29.7038 19.9049C29.7038 19.9049 29.7038 19.9049 29.7038 19.9049C30.1875 19.6291 30.5408 19.1712 30.6849 18.6334C30.829 18.0955 30.7518 17.5224 30.4706 17.0418L27.7136 12.3273C27.7136 12.3274 27.7135 12.3273 27.7136 12.3273Z" fill="#45BEDF"/>
<path fill-rule="evenodd" clip-rule="evenodd" d="M5.32862 3.24365C4.17726 3.24365 3.2439 4.17701 3.2439 5.32837V26.1704C3.2439 28.703 5.29701 30.7562 7.82966 30.7562C10.3623 30.7562 12.4154 28.703 12.4154 26.1704V5.32837C12.4154 4.17701 11.4821 3.24365 10.3307 3.24365H5.32862ZM7.82966 33.2562C3.9163 33.2562 0.743896 30.0837 0.743896 26.1704V5.32837C0.743896 2.7963 2.79655 0.743652 5.32862 0.743652H10.3307C12.8628 0.743652 14.9154 2.7963 14.9154 5.32837V26.1704C14.9154 30.0837 11.743 33.2562 7.82966 33.2562Z" fill="#45BEDF"/>
<path fill-rule="evenodd" clip-rule="evenodd" d="M12.8605 4.42645C14.1287 2.25793 16.9058 1.51379 19.0883 2.75769L23.9009 5.50074C24.965 6.10721 25.7422 7.11425 26.0592 8.29731C26.3762 9.48037 26.2066 10.7411 25.5883 11.7983C25.5883 11.7983 25.5883 11.7983 25.5883 11.7983L15.6674 28.7626C14.0389 31.547 11.0553 33.2578 7.82966 33.2562C7.1393 33.2558 6.57933 32.6959 6.57967 32.0055C6.58002 31.3152 7.1393 30.7558 7.82966 30.7562C10.1667 30.7573 12.3294 29.5179 13.5093 27.5005C13.5093 27.5005 13.5093 27.5005 13.5093 27.5005L23.4303 10.5363C23.7114 10.0555 23.7885 9.48227 23.6444 8.94434C23.5003 8.4064 23.1469 7.9485 22.663 7.67274L17.8504 4.9297C17.8504 4.92969 17.8504 4.9297 17.8504 4.9297C16.858 4.3641 15.5952 4.70247 15.0185 5.68854L14.7444 6.1572C14.3959 6.75311 13.6303 6.95365 13.0343 6.60511C12.4384 6.25657 12.2379 5.49094 12.5864 4.89503L12.8605 4.42645C12.8605 4.42642 12.8605 4.42648 12.8605 4.42645Z" fill="#45BEDF"/>
</svg>
