<svg width="35" height="34" viewBox="0 0 35 34" fill="none" xmlns="http://www.w3.org/2000/svg">
<path fill-rule="evenodd" clip-rule="evenodd" d="M8.66667 3.25C5.67512 3.25 3.25 5.67512 3.25 8.66667C3.25 11.6582 5.67512 14.0833 8.66667 14.0833H22C23.1506 14.0833 24.0833 13.1506 24.0833 12V5.33333C24.0833 4.18274 23.1506 3.25 22 3.25H8.66667ZM0.75 8.66667C0.75 4.29441 4.29441 0.75 8.66667 0.75H22C24.5313 0.75 26.5833 2.80203 26.5833 5.33333V12C26.5833 14.5313 24.5313 16.5833 22 16.5833H8.66667C4.29441 16.5833 0.75 13.0389 0.75 8.66667Z" fill="#45BEDF"/>
<path fill-rule="evenodd" clip-rule="evenodd" d="M23.9779 4.5C23.9779 3.80964 24.5376 3.25 25.2279 3.25H28.6667C30.2776 3.25 31.5834 4.55584 31.5834 6.16667V9.5C31.5834 11.1108 30.2776 12.4167 28.6667 12.4167H25.3334C24.643 12.4167 24.0834 11.857 24.0834 11.1667C24.0834 10.4763 24.643 9.91667 25.3334 9.91667H28.6667C28.8969 9.91667 29.0834 9.73012 29.0834 9.5V6.16667C29.0834 5.93655 28.8969 5.75 28.6667 5.75H25.2279C24.5376 5.75 23.9779 5.19036 23.9779 4.5Z" fill="#45BEDF"/>
<path fill-rule="evenodd" clip-rule="evenodd" d="M29.0833 7.83333C29.0833 7.14298 29.643 6.58333 30.3333 6.58333H33.6667C34.357 6.58333 34.9167 7.14298 34.9167 7.83333C34.9167 8.52369 34.357 9.08333 33.6667 9.08333H30.3333C29.643 9.08333 29.0833 8.52369 29.0833 7.83333Z" fill="#45BEDF"/>
<path fill-rule="evenodd" clip-rule="evenodd" d="M7.41667 8.66667C7.41667 7.97631 7.97631 7.41667 8.66667 7.41667H12.9975C13.6878 7.41667 14.2475 7.97631 14.2475 8.66667C14.2475 9.35702 13.6878 9.91667 12.9975 9.91667H8.66667C7.97631 9.91667 7.41667 9.35702 7.41667 8.66667Z" fill="#45BEDF"/>
<path fill-rule="evenodd" clip-rule="evenodd" d="M16.5619 14.1475C17.2168 14.3658 17.5708 15.0737 17.3525 15.7286L14.0191 25.7286C13.8008 26.3835 13.0929 26.7375 12.438 26.5192C11.7831 26.3009 11.4291 25.593 11.6474 24.938L14.9807 14.938C15.1991 14.2831 15.907 13.9292 16.5619 14.1475Z" fill="#45BEDF"/>
<path fill-rule="evenodd" clip-rule="evenodd" d="M22 14.0833C22.6904 14.0833 23.25 14.643 23.25 15.3333V17.7106C23.25 19.8495 21.5161 21.5833 19.3773 21.5833H14.5C13.8096 21.5833 13.25 21.0237 13.25 20.3333C13.25 19.643 13.8096 19.0833 14.5 19.0833H19.3773C20.1354 19.0833 20.75 18.4687 20.75 17.7106V15.3333C20.75 14.643 21.3096 14.0833 22 14.0833Z" fill="#45BEDF"/>
<path fill-rule="evenodd" clip-rule="evenodd" d="M8.24512 14.0978C8.90005 14.3161 9.254 15.024 9.03569 15.6789L5.68579 25.7286C5.46748 26.3836 4.75958 26.7375 4.10465 26.5192C3.44972 26.3009 3.09577 25.593 3.31408 24.9381L6.66398 14.8883C6.88229 14.2334 7.59019 13.8795 8.24512 14.0978Z" fill="#45BEDF"/>
<path fill-rule="evenodd" clip-rule="evenodd" d="M0.75 27C0.75 25.3892 2.05584 24.0833 3.66667 24.0833H13.6667C15.2775 24.0833 16.5833 25.3892 16.5833 27V30.3333C16.5833 31.9442 15.2775 33.25 13.6667 33.25H3.66667C2.05584 33.25 0.75 31.9442 0.75 30.3333V27ZM3.66667 26.5833C3.43655 26.5833 3.25 26.7699 3.25 27V30.3333C3.25 30.5635 3.43655 30.75 3.66667 30.75H13.6667C13.8968 30.75 14.0833 30.5635 14.0833 30.3333V27C14.0833 26.7699 13.8968 26.5833 13.6667 26.5833H3.66667Z" fill="#45BEDF"/>
</svg>
