<svg width="24" height="24" viewBox="0 0 24 24" fill="none" xmlns="http://www.w3.org/2000/svg">
<g clip-path="url(#clip0_213_713)">
<path d="M12 23.3982C18.6278 23.3982 24 18.1888 24 11.7619C24 5.33494 18.6278 0.125488 12 0.125488C5.37225 0.125488 0 5.33494 0 11.7619C0 18.188 5.37225 23.3982 12 23.3982Z" fill="#FA3E2C"/>
<path d="M13.7078 6.77339H12.5625C10.599 6.77339 9.61727 7.75521 9.61727 9.22648C9.61727 10.8628 10.272 11.6803 11.7443 12.6614L12.8903 13.4796L9.61727 18.5501H6.99902L10.1078 13.9698C8.30777 12.6614 7.32602 11.5167 7.32602 9.39012C7.32602 6.77339 9.12602 4.97412 12.5625 4.97412H15.999V18.5501H13.7078V6.77339Z" fill="white"/>
</g>
<defs>
<clipPath id="clip0_213_713">
<rect width="24" height="24" fill="white"/>
</clipPath>
</defs>
</svg>
