<svg width="20" height="20" viewBox="0 0 20 20" fill="none" xmlns="http://www.w3.org/2000/svg">
<path fill-rule="evenodd" clip-rule="evenodd" d="M0.567913 9.91949C0.569223 4.70028 4.81614 0.456055 10.0369 0.456055C12.5677 0.45714 14.9478 1.44415 16.7344 3.23189C18.5208 5.02046 19.506 7.40032 19.5049 9.92738C19.5027 15.1464 15.2561 19.3921 10.0369 19.3921H10.0329C8.55241 19.3921 7.09489 19.0446 5.77537 18.3802L1.43415 19.5185C1.17494 19.5865 0.899151 19.511 0.710699 19.3205C0.522247 19.13 0.449764 18.8534 0.520559 18.5949L1.6769 14.3734C0.947475 13.0037 0.565948 11.474 0.567913 9.91949ZM10.0366 1.95605C5.64365 1.95623 2.06883 5.52972 2.06791 9.92021C2.06609 11.3174 2.43253 12.6917 3.13064 13.9024C3.23065 14.0759 3.25716 14.2821 3.20427 14.4752L2.31053 17.738L5.67568 16.8556C5.86041 16.8071 6.05666 16.831 6.2244 16.9223C7.39358 17.5585 8.70237 17.8921 10.0329 17.8921H10.0369C14.4278 17.8921 18.0031 14.3177 18.0049 9.92673C18.0058 7.79779 17.1789 5.79949 15.6733 4.29206C14.168 2.78597 12.1696 1.95705 10.0366 1.95605Z" fill="#282828"/>
<path d="M7.03432 6.35038C7.18492 6.19978 7.42713 6.22452 7.54392 6.39178C7.78736 6.74242 8.05029 7.11976 8.34447 7.53745C8.44038 7.67435 8.42133 7.85946 8.3107 7.97069L7.9077 8.37669C7.61589 8.67067 7.61765 9.14554 7.91163 9.43735C8.20561 9.72915 8.68048 9.72739 8.97228 9.43341L9.37528 9.02741C10.0061 8.39271 10.0794 7.39785 9.57174 6.675L9.57116 6.67418C9.27948 6.26005 9.01818 5.88505 8.77571 5.53582C8.12036 4.59354 6.7789 4.48448 5.97366 5.28972L5.62042 5.64296C5.61804 5.64529 5.61568 5.64763 5.61333 5.65C4.59877 6.66937 4.58984 8.00583 5.02013 9.21596C5.44555 10.4124 6.31566 11.5954 7.34154 12.6218C7.63436 12.9148 8.12514 12.9374 8.41811 12.6445C8.71108 12.3517 8.70122 11.8604 8.4084 11.5674C7.46928 10.6278 6.75678 9.62275 6.43344 8.71342C6.11608 7.82088 6.21636 7.17421 6.67178 6.7129L6.67532 6.70938L7.03432 6.35038Z" fill="#282828"/>
<path d="M13.6153 12.9965C13.7676 12.8477 13.7457 12.6052 13.5799 12.4865C13.2321 12.2389 12.8579 11.9716 12.4437 11.6725C12.3079 11.575 12.1226 11.5919 12.0101 11.7012L11.5994 12.0994C11.302 12.3877 10.8272 12.3804 10.5388 12.083C10.2505 11.7856 10.2579 11.3108 10.5553 11.0224L10.966 10.6242C11.6081 10.001 12.6037 9.93933 13.3205 10.4555L13.3213 10.4561C13.732 10.7526 14.1039 11.0183 14.4503 11.2649C15.3848 11.9313 15.478 13.2739 14.6634 14.0696L14.306 14.4187C14.3037 14.421 14.3013 14.4234 14.2989 14.4257C13.2676 15.4282 11.9312 15.4214 10.7262 14.9769C9.53486 14.5374 8.35579 13.6597 7.34154 12.6218C7.05204 12.3256 7.04159 11.8283 7.33784 11.5388C7.63408 11.2493 8.1189 11.2712 8.4084 11.5674C9.33689 12.5176 10.3399 13.2356 11.2453 13.5696C12.1341 13.8974 12.7819 13.8048 13.2485 13.3548L13.2521 13.3513L13.6153 12.9965Z" fill="#282828"/>
<path fill-rule="evenodd" clip-rule="evenodd" d="M8.03823 8.27169C8.38803 8.04985 8.85144 8.15358 9.07328 8.50338C9.35823 8.95268 9.73072 9.40821 10.1602 9.83772L10.1622 9.83972C10.5918 10.2692 11.0473 10.6417 11.4966 10.9267C11.8464 11.1485 11.9501 11.6119 11.7283 11.9617C11.5064 12.3115 11.043 12.4153 10.6932 12.1934C10.1365 11.8404 9.59606 11.3949 9.10158 10.9004L9.09958 10.8984C8.6051 10.4039 8.1596 9.86343 7.80654 9.30673C7.5847 8.95693 7.68843 8.49353 8.03823 8.27169Z" fill="#282828"/>
</svg>
