<svg width="18" height="19" viewBox="0 0 18 19" fill="none" xmlns="http://www.w3.org/2000/svg">
<path fill-rule="evenodd" clip-rule="evenodd" d="M0.25 17.25C0.25 14.4886 2.48858 12.25 5.25 12.25H12.75C15.5114 12.25 17.75 14.4886 17.75 17.25V18C17.75 18.4142 17.4142 18.75 17 18.75C16.5858 18.75 16.25 18.4142 16.25 18V17.25C16.25 15.317 14.683 13.75 12.75 13.75H5.25C3.317 13.75 1.75 15.317 1.75 17.25V18C1.75 18.4142 1.41421 18.75 1 18.75C0.585786 18.75 0.25 18.4142 0.25 18V17.25Z" fill="#282828"/>
<path fill-rule="evenodd" clip-rule="evenodd" d="M9 1.75C7.20507 1.75 5.75 3.20507 5.75 5C5.75 6.79493 7.20507 8.25 9 8.25C10.7949 8.25 12.25 6.79493 12.25 5C12.25 3.20507 10.7949 1.75 9 1.75ZM4.25 5C4.25 2.37665 6.37665 0.25 9 0.25C11.6234 0.25 13.75 2.37665 13.75 5C13.75 7.62335 11.6234 9.75 9 9.75C6.37665 9.75 4.25 7.62335 4.25 5Z" fill="#282828"/>
</svg>
