<svg width="20" height="16" viewBox="0 0 20 16" fill="none" xmlns="http://www.w3.org/2000/svg">
<path fill-rule="evenodd" clip-rule="evenodd" d="M4.85963 5.35545C5.07701 5.00286 5.53906 4.89326 5.89165 5.11064L8.81834 6.91503C9.54275 7.36165 10.4571 7.36165 11.1815 6.91503L14.1082 5.11064C14.4608 4.89326 14.9228 5.00286 15.1402 5.35545C15.3576 5.70804 15.248 6.17009 14.8954 6.38747L11.9687 8.19186C10.7617 8.93604 9.23818 8.93604 8.03113 8.19186L5.10444 6.38747C4.75186 6.17009 4.64225 5.70804 4.85963 5.35545Z" fill="#282828"/>
<path fill-rule="evenodd" clip-rule="evenodd" d="M0.246338 3.99707C0.246338 1.926 1.92527 0.24707 3.99634 0.24707H16.0038C18.0749 0.24707 19.7538 1.926 19.7538 3.99707V12.0029C19.7538 14.074 18.0749 15.7529 16.0038 15.7529H3.99634C1.92527 15.7529 0.246338 14.074 0.246338 12.0029V3.99707ZM3.99634 1.74707C2.7537 1.74707 1.74634 2.75443 1.74634 3.99707V12.0029C1.74634 13.2455 2.7537 14.2529 3.99634 14.2529H16.0038C17.2465 14.2529 18.2538 13.2455 18.2538 12.0029V3.99707C18.2538 2.75443 17.2465 1.74707 16.0038 1.74707H3.99634Z" fill="#282828"/>
</svg>
