<svg width="18" height="20" viewBox="0 0 18 20" fill="none" xmlns="http://www.w3.org/2000/svg">
<path fill-rule="evenodd" clip-rule="evenodd" d="M3 1.75C2.30964 1.75 1.75 2.30964 1.75 3V17C1.75 17.6904 2.30964 18.25 3 18.25H4C4.41421 18.25 4.75 18.5858 4.75 19C4.75 19.4142 4.41421 19.75 4 19.75H3C1.48122 19.75 0.25 18.5188 0.25 17V3C0.25 1.48122 1.48122 0.25 3 0.25H11C12.5188 0.25 13.75 1.48122 13.75 3V8C13.75 8.41421 13.4142 8.75 13 8.75C12.5858 8.75 12.25 8.41421 12.25 8V3C12.25 2.30964 11.6904 1.75 11 1.75H3Z" fill="#282828"/>
<path fill-rule="evenodd" clip-rule="evenodd" d="M4.5 0.25C4.91421 0.25 5.25 0.585786 5.25 1V2.75H8.75V1C8.75 0.585786 9.08579 0.25 9.5 0.25C9.91421 0.25 10.25 0.585786 10.25 1V3C10.25 3.69036 9.69036 4.25 9 4.25H5C4.30964 4.25 3.75 3.69036 3.75 3V1C3.75 0.585786 4.08579 0.25 4.5 0.25Z" fill="#282828"/>
<path fill-rule="evenodd" clip-rule="evenodd" d="M6.25 13C6.25 11.4812 7.48122 10.25 9 10.25H15C16.5188 10.25 17.75 11.4812 17.75 13V17C17.75 18.5188 16.5188 19.75 15 19.75H9C7.48122 19.75 6.25 18.5188 6.25 17V13ZM9 11.75C8.30964 11.75 7.75 12.3096 7.75 13V17C7.75 17.6904 8.30964 18.25 9 18.25H15C15.6904 18.25 16.25 17.6904 16.25 17V13C16.25 12.3096 15.6904 11.75 15 11.75H9Z" fill="#282828"/>
<path fill-rule="evenodd" clip-rule="evenodd" d="M9.09263 13.6618C9.27941 13.2921 9.73054 13.1438 10.1003 13.3306L11.8425 14.2108C11.9495 14.2631 12.0746 14.2631 12.1816 14.2108L13.9238 13.3306C14.2935 13.1438 14.7447 13.2921 14.9315 13.6618C15.1182 14.0315 14.97 14.4826 14.6003 14.6694L12.8494 15.554C12.3218 15.8154 11.7024 15.8153 11.1748 15.554L11.1695 15.5514L9.42385 14.6694C9.05414 14.4826 8.90585 14.0315 9.09263 13.6618Z" fill="#282828"/>
<path fill-rule="evenodd" clip-rule="evenodd" d="M3 1.75C2.30964 1.75 1.75 2.30964 1.75 3V17C1.75 17.6904 2.30964 18.25 3 18.25H4C4.41421 18.25 4.75 18.5858 4.75 19C4.75 19.4142 4.41421 19.75 4 19.75H3C1.48122 19.75 0.25 18.5188 0.25 17V3C0.25 1.48122 1.48122 0.25 3 0.25H11C12.5188 0.25 13.75 1.48122 13.75 3V8C13.75 8.41421 13.4142 8.75 13 8.75C12.5858 8.75 12.25 8.41421 12.25 8V3C12.25 2.30964 11.6904 1.75 11 1.75H3Z" fill="#282828"/>
<path fill-rule="evenodd" clip-rule="evenodd" d="M4.5 0.25C4.91421 0.25 5.25 0.585786 5.25 1V2.75H8.75V1C8.75 0.585786 9.08579 0.25 9.5 0.25C9.91421 0.25 10.25 0.585786 10.25 1V3C10.25 3.69036 9.69036 4.25 9 4.25H5C4.30964 4.25 3.75 3.69036 3.75 3V1C3.75 0.585786 4.08579 0.25 4.5 0.25Z" fill="#282828"/>
<path fill-rule="evenodd" clip-rule="evenodd" d="M6.25 13C6.25 11.4812 7.48122 10.25 9 10.25H15C16.5188 10.25 17.75 11.4812 17.75 13V17C17.75 18.5188 16.5188 19.75 15 19.75H9C7.48122 19.75 6.25 18.5188 6.25 17V13ZM9 11.75C8.30964 11.75 7.75 12.3096 7.75 13V17C7.75 17.6904 8.30964 18.25 9 18.25H15C15.6904 18.25 16.25 17.6904 16.25 17V13C16.25 12.3096 15.6904 11.75 15 11.75H9Z" fill="#282828"/>
<path fill-rule="evenodd" clip-rule="evenodd" d="M9.09263 13.6618C9.27941 13.2921 9.73054 13.1438 10.1003 13.3306L11.8425 14.2108C11.9495 14.2631 12.0746 14.2631 12.1816 14.2108L13.9238 13.3306C14.2935 13.1438 14.7447 13.2921 14.9315 13.6618C15.1182 14.0315 14.97 14.4826 14.6003 14.6694L12.8494 15.554C12.3218 15.8154 11.7024 15.8153 11.1748 15.554L11.1695 15.5514L9.42385 14.6694C9.05414 14.4826 8.90585 14.0315 9.09263 13.6618Z" fill="#282828"/>
</svg>
