<svg width="18" height="18" viewBox="0 0 18 18" fill="none" xmlns="http://www.w3.org/2000/svg">
<path fill-rule="evenodd" clip-rule="evenodd" d="M2.54133 3.27781C2.68374 3.10208 2.89784 3 3.12403 3H15.75C16.8893 3 17.7239 4.06984 17.4476 5.1749L16.0996 10.5669C15.8179 11.6925 14.8609 12.5207 13.7057 12.6363L6.8897 13.3183C5.49376 13.457 4.2157 12.5242 3.92531 11.1514L2.39031 3.90543C2.34344 3.68415 2.39893 3.45354 2.54133 3.27781ZM4.04955 4.5L5.39275 10.8406C5.52445 11.4635 6.10459 11.8887 6.74036 11.8257L13.5564 11.1437C14.0811 11.0913 14.5161 10.7154 14.6444 10.2031L15.9924 4.8111C16.0322 4.65216 15.9128 4.5 15.75 4.5H4.04955Z" fill="#282828"/>
<path fill-rule="evenodd" clip-rule="evenodd" d="M0 0.75C0 0.335786 0.335786 0 0.75 0H2.474C2.82701 0 3.13224 0.246177 3.20699 0.591185L3.85699 3.59118C3.9447 3.99601 3.68764 4.39528 3.28282 4.48299C2.87799 4.5707 2.47872 4.31364 2.39101 3.90882L1.8691 1.5H0.75C0.335786 1.5 0 1.16421 0 0.75Z" fill="#282828"/>
<path fill-rule="evenodd" clip-rule="evenodd" d="M4.83301 16.383C4.83089 15.763 5.3347 15.267 5.94703 15.267C6.56424 15.267 7.06403 15.7668 7.06403 16.384C7.06403 17.0002 6.56424 17.5 5.94803 17.5C5.33702 17.5 4.83092 17.0053 4.83301 16.383Z" fill="#282828"/>
<path fill-rule="evenodd" clip-rule="evenodd" d="M12.25 16.383C12.2479 15.763 12.7517 15.267 13.364 15.267C13.9812 15.267 14.481 15.7668 14.481 16.384C14.481 17.0002 13.9812 17.5 13.365 17.5C12.754 17.5 12.2479 17.0053 12.25 16.383Z" fill="#282828"/>
</svg>
