<svg width="32" height="32" viewBox="0 0 32 32" fill="none" xmlns="http://www.w3.org/2000/svg">
<rect width="32" height="32" rx="16" fill="#26A4E3"/>
<path fill-rule="evenodd" clip-rule="evenodd" d="M6.84295 15.4315C11.5073 13.3994 14.6176 12.0596 16.1738 11.4123C20.6172 9.56418 21.5405 9.24314 22.1422 9.23253C22.2746 9.2302 22.5705 9.26301 22.7622 9.41856C22.9241 9.5499 22.9686 9.72733 22.99 9.85186C23.0113 9.97638 23.0378 10.2601 23.0167 10.4817C22.7759 13.0117 21.734 19.1513 21.204 21.9849C20.9797 23.1839 20.5381 23.5859 20.1105 23.6253C19.1814 23.7108 18.4758 23.0112 17.5759 22.4213C16.1677 21.4982 15.3721 20.9236 14.0052 20.0228C12.4255 18.9818 13.4496 18.4097 14.3499 17.4746C14.5855 17.2299 18.6793 13.5062 18.7586 13.1684C18.7685 13.1262 18.7777 12.9687 18.6841 12.8856C18.5906 12.8024 18.4525 12.8308 18.3528 12.8535C18.2116 12.8855 15.962 14.3724 11.6039 17.3142C10.9654 17.7527 10.387 17.9663 9.86881 17.9551C9.29752 17.9428 8.19861 17.6321 7.38167 17.3666C6.37967 17.0409 5.5833 16.8687 5.65265 16.3155C5.68877 16.0274 6.08553 15.7327 6.84295 15.4315Z" fill="white"/>
</svg>
