<svg width="15" height="15" viewBox="0 0 15 15" fill="none" xmlns="http://www.w3.org/2000/svg">
<path fill-rule="evenodd" clip-rule="evenodd" d="M12.3575 0.361646C13.7628 -0.159202 15.1313 1.20931 14.6105 2.61455L10.5484 13.5736C9.94894 15.1885 7.62315 15.061 7.20378 13.3905L6.07978 8.90184L1.57547 7.77029C-0.0943909 7.35064 -0.221232 5.02607 1.3932 4.42678L12.3575 0.361646ZM9.14208 13.0519L13.204 2.09324C13.2791 1.8905 13.0817 1.69304 12.8789 1.76812C12.8789 1.76813 12.879 1.76811 12.8789 1.76812L1.91521 5.83301C1.91517 5.83303 1.91525 5.833 1.91521 5.83301C1.68179 5.91978 1.7009 6.25511 1.94094 6.3155C1.94091 6.31549 1.94096 6.3155 1.94094 6.3155L6.88094 7.5565C7.14918 7.62388 7.35856 7.83342 7.42574 8.10171L8.65863 13.0253C8.71926 13.2668 9.05559 13.2849 9.14208 13.0519Z" fill="#282828"/>
<path fill-rule="evenodd" clip-rule="evenodd" d="M12.3575 0.361646C13.7628 -0.159202 15.1313 1.20931 14.6105 2.61455L10.5484 13.5736C9.94894 15.1885 7.62315 15.061 7.20378 13.3905L6.07978 8.90184L1.57547 7.77029C-0.0943909 7.35064 -0.221232 5.02607 1.3932 4.42678L12.3575 0.361646ZM9.14208 13.0519L13.204 2.09324C13.2791 1.8905 13.0817 1.69304 12.8789 1.76812C12.8789 1.76813 12.879 1.76811 12.8789 1.76812L1.91521 5.83301C1.91517 5.83303 1.91525 5.833 1.91521 5.83301C1.68179 5.91978 1.7009 6.25511 1.94094 6.3155C1.94091 6.31549 1.94096 6.3155 1.94094 6.3155L6.88094 7.5565C7.14918 7.62388 7.35856 7.83342 7.42574 8.10171L8.65863 13.0253C8.71926 13.2668 9.05559 13.2849 9.14208 13.0519Z" fill="#282828"/>
</svg>
