<svg width="18" height="18" viewBox="0 0 18 18" fill="none" xmlns="http://www.w3.org/2000/svg">
<path d="M12.4167 17.1668C12.1667 17.1668 12 17.1668 11.75 17.0835C9.33336 16.5835 6.91669 15.2502 4.83336 13.1668C2.75003 11.0835 1.41669 8.66683 0.916695 6.25016C0.750028 5.16683 1.08336 4.0835 1.83336 3.3335L2.33336 2.75016C3.25003 1.8335 4.66669 1.8335 5.58336 2.75016L6.58336 3.75016C7.33336 4.50016 7.25003 5.66683 6.50003 6.41683L5.83336 7.16683C6.33336 8.25016 7.00003 9.25016 7.91669 10.1668C8.83336 11.0835 9.83336 11.7502 10.9167 12.2502L11.6667 11.5002C12.3334 10.8335 13.5834 10.7502 14.3334 11.5002L15.3334 12.5002C16.25 13.4168 16.25 14.8335 15.3334 15.7502L14.75 16.3335C14.0834 16.8335 13.25 17.1668 12.4167 17.1668ZM4.00003 3.3335C3.75003 3.3335 3.50003 3.41683 3.25003 3.66683L2.66669 4.16683C2.25003 4.66683 2.00003 5.3335 2.16669 6.00016C2.58336 8.16683 3.83336 10.4168 5.75003 12.2502C7.66669 14.1668 9.83336 15.4168 12 15.8335C12.6667 16.0002 13.3334 15.7502 13.8334 15.3335L14.4167 14.7502C14.8334 14.3335 14.8334 13.6668 14.4167 13.2502L13.4167 12.3335C13.1667 12.0835 12.75 12.0835 12.5 12.3335L11.75 13.0835C11.4167 13.4168 10.8334 13.5835 10.4167 13.3335C9.16669 12.8335 8.00003 12.0002 7.00003 11.0002C6.00003 10.0002 5.16669 8.8335 4.66669 7.66683C4.50003 7.16683 4.58336 6.5835 4.91669 6.25016L5.58336 5.5835C5.91669 5.25016 5.91669 4.8335 5.66669 4.5835L4.75003 3.66683C4.50003 3.41683 4.25003 3.3335 4.00003 3.3335Z" fill="#282828"/>
<path d="M12.25 6.41683C12.0834 6.41683 11.9167 6.3335 11.8334 6.25016C11.3334 5.75016 10.6667 5.50016 9.91669 5.50016C9.91669 5.50016 9.91669 5.50016 9.83336 5.50016C9.50003 5.50016 9.25003 5.25016 9.16669 4.91683C9.16669 4.5835 9.41669 4.25016 9.75003 4.25016C10.8334 4.25016 11.8334 4.66683 12.5834 5.41683C12.8334 5.66683 12.8334 6.0835 12.5834 6.3335C12.5 6.3335 12.3334 6.41683 12.25 6.41683Z" fill="#282828"/>
<path d="M14.5834 4.0835C14.4167 4.0835 14.25 4.00016 14.1667 3.91683C13 2.75016 11.5 2.16683 9.83336 2.16683C9.50003 2.16683 9.16669 1.91683 9.16669 1.50016C9.16669 1.0835 9.41669 0.833496 9.83336 0.833496C11.75 0.833496 13.6667 1.5835 15 3.00016C15.25 3.25016 15.25 3.66683 15 3.91683C14.9167 4.00016 14.75 4.0835 14.5834 4.0835Z" fill="#282828"/>
<path d="M13.1667 8.8335C12.8334 8.8335 12.5 8.5835 12.5 8.16683C12.5 7.41683 12.25 6.75016 11.75 6.25016C11.5 6.00016 11.5 5.5835 11.75 5.3335C12 5.0835 12.4167 5.0835 12.6667 5.3335C13.4167 6.0835 13.8334 7.0835 13.8334 8.16683C13.8334 8.50016 13.5 8.8335 13.1667 8.8335Z" fill="#282828"/>
<path d="M16.5 8.8335C16.1667 8.8335 15.8334 8.5835 15.8334 8.16683C15.8334 6.5835 15.1667 5.00016 14.0834 3.8335C13.8334 3.5835 13.8334 3.16683 14.0834 2.91683C14.3334 2.66683 14.75 2.66683 15 2.91683C16.4167 4.3335 17.1667 6.16683 17.1667 8.0835C17.1667 8.50016 16.9167 8.8335 16.5 8.8335Z" fill="#282828"/>
</svg>
