<svg width="22" height="21" viewBox="0 0 22 21" fill="none" xmlns="http://www.w3.org/2000/svg">
<path d="M10.1287 0.386085C10.3828 -0.128695 11.1169 -0.128695 11.371 0.386086L14.1562 6.02855C14.257 6.23278 14.4518 6.37441 14.6771 6.40735L20.9066 7.31788C21.4746 7.40089 21.7009 8.09901 21.2897 8.49949L16.7832 12.8888C16.6199 13.048 16.5453 13.2773 16.5838 13.5021L17.6472 19.7023C17.7443 20.2682 17.1503 20.6997 16.6421 20.4324L11.0723 17.5033C10.8705 17.3972 10.6293 17.3972 10.4275 17.5033L4.85765 20.4324C4.34948 20.6997 3.75547 20.2682 3.85253 19.7023L4.91592 13.5021C4.95448 13.2773 4.8799 13.048 4.71652 12.8888L0.210007 8.49949C-0.201165 8.09901 0.0251927 7.40089 0.593134 7.31788L6.82261 6.40735C7.04798 6.37441 7.24275 6.23278 7.34357 6.02855L10.1287 0.386085Z" fill="#EEB83B"/>
</svg>
