<svg width="32" height="32" viewBox="0 0 32 32" fill="none" xmlns="http://www.w3.org/2000/svg">
<g clip-path="url(#clip0_213_700)">
<mask id="mask0_213_700" style="mask-type:alpha" maskUnits="userSpaceOnUse" x="0" y="0" width="32" height="32">
<path d="M0 16C0 7.16344 7.16344 0 16 0C24.8366 0 32 7.16344 32 16C32 24.8366 24.8366 32 16 32C7.16344 32 0 24.8366 0 16Z" fill="black"/>
</mask>
<g mask="url(#mask0_213_700)">
<path d="M0 16C0 7.16344 7.16344 0 16 0C24.8366 0 32 7.16344 32 16C32 24.8366 24.8366 32 16 32C7.16344 32 0 24.8366 0 16Z" fill="black"/>
<path fill-rule="evenodd" clip-rule="evenodd" d="M15.5205 0C15.4399 6.48619 14.9972 10.1317 12.5645 12.5645C10.1317 14.9972 6.48619 15.4399 0 15.5205V16.4795C6.48619 16.5601 10.1318 17.0028 12.5645 19.4355C14.9972 21.8683 15.4399 25.5138 15.5205 32H16.4795C16.5601 25.5138 17.0028 21.8683 19.4355 19.4355C21.8683 17.0028 25.5138 16.5601 32 16.4795V15.5205C25.5138 15.4399 21.8683 14.9972 19.4355 12.5645C17.0028 10.1317 16.5601 6.48616 16.4795 0H15.5205Z" fill="white"/>
</g>
</g>
<defs>
<clipPath id="clip0_213_700">
<rect width="32" height="32" fill="white"/>
</clipPath>
</defs>
</svg>
