<svg width="14" height="8" viewBox="0 0 14 8" fill="none" xmlns="http://www.w3.org/2000/svg">
<path fill-rule="evenodd" clip-rule="evenodd" d="M0.956258 4.00002C0.956258 3.65484 1.23608 3.37502 1.58126 3.37502H12.4188C12.764 3.37502 13.0438 3.65484 13.0438 4.00002C13.0438 4.34519 12.764 4.62502 12.4188 4.62502H1.58126C1.23608 4.62502 0.956258 4.34519 0.956258 4.00002Z" fill="#282828"/>
<path fill-rule="evenodd" clip-rule="evenodd" d="M0.956258 7.33472C0.956258 6.98954 1.23608 6.70972 1.58126 6.70972H12.4188C12.764 6.70972 13.0438 6.98954 13.0438 7.33472C13.0438 7.6799 12.764 7.95972 12.4188 7.95972H1.58126C1.23608 7.95972 0.956258 7.6799 0.956258 7.33472Z" fill="#282828"/>
<path fill-rule="evenodd" clip-rule="evenodd" d="M0.956055 0.665283C0.956055 0.320105 1.23588 0.0402832 1.58105 0.0402832H12.4186C12.7638 0.0402832 13.0436 0.320105 13.0436 0.665283C13.0436 1.01046 12.7638 1.29028 12.4186 1.29028H1.58105C1.23588 1.29028 0.956055 1.01046 0.956055 0.665283Z" fill="#282828"/>
</svg>
