<svg width="18" height="18" viewBox="0 0 18 18" fill="none" xmlns="http://www.w3.org/2000/svg">
<path fill-rule="evenodd" clip-rule="evenodd" d="M8.05852 1.74667C4.57253 1.74667 1.74658 4.57263 1.74658 8.05861C1.74658 11.5446 4.57253 14.3706 8.05852 14.3706C11.5445 14.3706 14.3705 11.5446 14.3705 8.05861C14.3705 4.57263 11.5445 1.74667 8.05852 1.74667ZM0.246582 8.05861C0.246582 3.7442 3.74411 0.246674 8.05852 0.246674C12.3729 0.246674 15.8705 3.7442 15.8705 8.05861C15.8705 12.373 12.3729 15.8706 8.05852 15.8706C3.74411 15.8706 0.246582 12.373 0.246582 8.05861Z" fill="#282828"/>
<path fill-rule="evenodd" clip-rule="evenodd" d="M12.5214 12.5214C12.8143 12.2285 13.2892 12.2285 13.5821 12.5214L17.5337 16.473C17.8266 16.7659 17.8266 17.2408 17.5337 17.5337C17.2408 17.8266 16.766 17.8266 16.4731 17.5337L12.5214 13.582C12.2285 13.2891 12.2285 12.8143 12.5214 12.5214Z" fill="#282828"/>
</svg>
