<svg width="131" height="36" viewBox="0 0 131 36" fill="none" xmlns="http://www.w3.org/2000/svg">
<g clip-path="url(#clip0_215_1192)">
<path d="M21.8442 0.342961C19.91 0.0529357 18.3156 0.000200629 16.669 0.0265665C14.761 0.0265665 12.853 0.0792951 10.945 0.105661C9.69038 0.105661 9.16762 0.817541 9.16762 2.0831C9.14148 3.50686 9.16763 4.93063 9.14149 6.35439C9.11535 8.09453 8.25283 8.99098 6.52777 9.01734C4.98568 9.04371 3.46973 9.01734 1.92763 9.01734C0.568497 9.04371 0.0457401 9.57103 0.0196029 10.9684C-0.0065343 12.6295 -0.0065343 14.2905 0.0196029 15.9779C0.0457401 17.349 0.568484 17.8499 1.97989 17.8499C3.67881 17.8763 5.37773 17.8763 7.05051 17.8499C8.35737 17.8236 8.88012 17.3226 8.88012 16.0043C8.90626 14.4224 8.85397 12.8404 8.90625 11.2584C8.93239 9.78196 9.71651 8.99098 11.1802 8.99098C11.5461 8.99098 11.912 8.99098 12.278 8.99098C12.3825 8.99098 12.4609 8.99098 12.5655 8.99098C13.7678 8.99098 14.7087 8.96461 15.6497 8.96461C16.9304 8.96461 18.2111 8.96461 19.518 9.01734C19.5702 9.01734 19.6225 9.01734 19.6748 9.01734C22.2362 9.07008 24.1704 11.1003 24.1181 13.5259C24.0658 16.0043 22.1317 17.8499 19.5441 17.8763C19.0475 17.8763 18.577 17.8763 18.0804 17.8763C16.5906 17.8236 15.1008 17.8499 13.6109 17.8763C12.853 17.8763 12.0689 17.8763 11.3109 17.8763C11.2586 17.8763 11.2063 17.9027 11.1541 17.929C11.0756 17.929 11.0234 17.929 10.945 17.929C9.69038 17.929 9.16762 18.6409 9.16762 19.9065C9.14148 21.3302 9.16763 22.754 9.14149 24.1777C9.11535 25.9179 8.25283 26.8143 6.52777 26.8407C4.98568 26.8671 3.46973 26.8407 1.92763 26.8407C0.568497 26.8671 0.0457401 27.3944 0.0196029 28.7918C-0.0065343 30.4528 -0.0065343 32.1139 0.0196029 33.8013C0.0457401 35.1723 0.568484 35.6733 1.97989 35.6733C3.67881 35.6996 5.37773 35.6996 7.05051 35.6733C8.35737 35.6469 8.88012 35.146 8.88012 33.8277C8.90626 32.2457 8.85397 30.6638 8.90625 29.0818C8.93239 27.6317 9.69038 26.8671 11.0756 26.8143C13.7416 26.8671 16.3815 26.8671 19.0475 26.8143C19.2043 26.8143 19.3611 26.8143 19.4918 26.8143V26.788C19.5964 26.788 19.6748 26.788 19.7793 26.788C26.6273 26.6561 32.3775 21.383 32.9263 14.8442C33.5275 7.77815 28.7705 1.34487 21.8442 0.342961Z" fill="url(#paint0_linear_215_1192)"/>
<path fill-rule="evenodd" clip-rule="evenodd" d="M119.127 12.4714L130.967 12.3923V15.7144H114.814V0.158478H130.967L130.993 3.45422H119.127V6.11718H129.216V9.36018H119.127V12.4714Z" fill="#282827"/>
<path fill-rule="evenodd" clip-rule="evenodd" d="M112.096 0.158478V15.7144H107.757V7.33001L103.706 15.7144H99.5762L95.2374 7.17181V15.7144H90.9248V0.158478H95.9954L101.641 11.4958L107.104 0.158478H112.096Z" fill="#282827"/>
<path d="M88.1803 0.158478H83.8677V15.7144H88.1803V0.158478Z" fill="#282827"/>
<path fill-rule="evenodd" clip-rule="evenodd" d="M76.6533 10.4409C78.0124 10.1509 79.0841 9.57086 79.8421 8.70079C80.6262 7.83071 80.9921 6.72334 80.9921 5.40505V5.32595C80.9921 4.29768 80.7046 3.40124 80.1557 2.61026C79.6068 1.84565 78.8227 1.23923 77.8295 0.791014C76.8363 0.36916 75.6862 0.131866 74.4055 0.131866H63.1404V15.6878H67.2962V10.6519H71.6611L75.9215 15.6878H81.0966L76.6533 10.4409ZM75.3987 7.35612C74.9805 7.40886 74.3794 7.46159 73.6214 7.46159H67.3223V3.34851C69.8054 3.34851 71.6088 3.34851 72.7589 3.29578C72.9941 3.26941 73.2816 3.26941 73.6214 3.26941C74.3794 3.26941 74.9805 3.29578 75.3987 3.37488C75.8169 3.45398 76.1567 3.63853 76.4181 3.92856C76.6795 4.24495 76.8101 4.71954 76.8101 5.40505C76.8101 6.03783 76.6795 6.48606 76.4181 6.80245C76.1567 7.11884 75.8169 7.30339 75.3987 7.35612Z" fill="#282827"/>
<path fill-rule="evenodd" clip-rule="evenodd" d="M59.612 2.63687C59.0631 1.84589 58.3051 1.23948 57.2858 0.817626C56.2926 0.395771 55.1425 0.158478 53.8618 0.158478H42.5967V15.7144H46.9354V10.6785H54.2539C56.2142 10.6785 57.7562 10.2303 58.8279 9.33381C59.8995 8.43737 60.4484 7.11908 60.4484 5.43166V5.35257C60.4484 4.29793 60.1609 3.40148 59.612 2.63687ZM56.0051 6.82905C55.7175 7.11908 55.3778 7.30364 54.9596 7.35637C54.5414 7.4091 53.9664 7.46184 53.2084 7.46184H46.9093V3.34875C48.7128 3.34875 49.9935 3.34875 50.7776 3.34875C51.5617 3.34875 52.1106 3.34875 52.4243 3.34875H53.2084C53.9402 3.34875 54.5152 3.37512 54.9596 3.45422C55.3778 3.53331 55.7437 3.71788 56.0312 4.0079C56.3187 4.29793 56.4494 4.79888 56.4494 5.45803C56.4233 6.09081 56.2926 6.53903 56.0051 6.82905Z" fill="#282827"/>
<path fill-rule="evenodd" clip-rule="evenodd" d="M88.0235 23.5448C87.1871 22.332 86.037 21.3565 84.5734 20.6709C83.1097 19.9854 81.463 19.6163 79.6334 19.6163C77.8822 19.6163 76.2617 19.9591 74.7719 20.6709C73.2821 21.3565 72.1059 22.332 71.2434 23.5448C70.3809 24.784 69.9365 26.1287 69.9365 27.6579C69.9365 29.1608 70.3809 30.5054 71.2434 31.7446C72.1059 32.9575 73.2821 33.9066 74.7719 34.6185C76.2617 35.304 77.8822 35.6731 79.6334 35.6731C81.463 35.6731 83.1097 35.3304 84.5734 34.6185C86.037 33.933 87.1871 32.9838 88.0235 31.771C88.8599 30.5582 89.278 29.1871 89.278 27.6843C89.278 26.1287 88.8599 24.7577 88.0235 23.5448ZM84.1029 30.1627C83.6063 30.8482 82.979 31.4019 82.1687 31.7446C81.3846 32.1137 80.5482 32.2983 79.6596 32.2983C78.7709 32.2983 77.9084 32.1137 77.1243 31.7446C76.314 31.3755 75.6867 30.8482 75.1901 30.1363C74.6935 29.4244 74.4583 28.5807 74.4583 27.6315C74.4583 26.6824 74.6935 25.865 75.164 25.1531C75.6344 24.4413 76.2879 23.914 77.072 23.5448C77.8822 23.1757 78.7186 22.9911 79.6334 22.9911C80.5221 22.9911 81.3585 23.1757 82.1426 23.5448C82.9267 23.914 83.5801 24.4676 84.0768 25.1795C84.5734 25.8914 84.8086 26.7087 84.8086 27.6579C84.8347 28.6334 84.5995 29.4508 84.1029 30.1627Z" fill="#282827"/>
<path fill-rule="evenodd" clip-rule="evenodd" d="M110.188 23.5448C109.351 22.332 108.201 21.3565 106.738 20.6709C105.274 19.9854 103.627 19.6163 101.798 19.6163C100.047 19.6163 98.426 19.9591 96.9362 20.6709C95.4464 21.3565 94.2702 22.332 93.4077 23.5448C92.5452 24.784 92.1008 26.1287 92.1008 27.6579C92.1008 29.1608 92.5452 30.5054 93.4077 31.7446C94.2964 32.9575 95.4725 33.9066 96.9362 34.6185C98.426 35.304 100.047 35.6731 101.798 35.6731C103.627 35.6731 105.274 35.3304 106.738 34.6185C108.201 33.933 109.351 32.9838 110.188 31.771C111.024 30.5582 111.442 29.1871 111.442 27.6843C111.442 26.1287 111.024 24.7577 110.188 23.5448ZM106.267 30.1627C105.771 30.8482 105.143 31.4019 104.359 31.7446C103.575 32.1137 102.739 32.2983 101.85 32.2983C100.961 32.2983 100.099 32.1137 99.2886 31.7446C98.4783 31.3755 97.851 30.8482 97.3544 30.1363C96.8839 29.4244 96.6226 28.5807 96.6226 27.6315C96.6226 26.6824 96.8578 25.865 97.3283 25.1531C97.7987 24.4413 98.4522 23.914 99.2363 23.5448C100.047 23.1757 100.883 22.9911 101.798 22.9911C102.686 22.9911 103.523 23.1757 104.307 23.5448C105.091 23.914 105.744 24.4676 106.215 25.1795C106.712 25.8914 106.947 26.7087 106.947 27.6579C106.999 28.6334 106.738 29.4508 106.267 30.1627Z" fill="#282827"/>
<path fill-rule="evenodd" clip-rule="evenodd" d="M129.895 23.6763C129.163 22.5162 128.118 21.6198 126.785 20.9606C125.426 20.3015 123.857 19.9587 122.08 19.9587H114.291V35.251H122.106C123.884 35.251 125.452 34.9082 126.785 34.2491C128.144 33.5899 129.163 32.6671 129.895 31.5334C130.627 30.3733 130.993 29.0813 130.993 27.6312C130.993 26.1547 130.627 24.8364 129.895 23.6763ZM125.53 30.6369C124.668 31.3224 123.596 31.6652 122.289 31.6652H118.525V23.5181H122.289C123.099 23.5181 123.857 23.7027 124.563 24.0718C125.243 24.4409 125.792 24.9419 126.21 25.5483C126.628 26.1811 126.811 26.8666 126.811 27.6048C126.785 28.9495 126.367 29.9514 125.53 30.6369Z" fill="#282827"/>
<path d="M63.899 19.9587L60.7102 30.4787L57.5215 19.9587H53.235L50.0463 30.4787L46.8575 19.9587H42.571L47.1973 35.1982H48.6087H51.4838H52.8952L55.3783 27.0248L57.8613 35.1982H59.2727H62.1478H63.5592L68.1855 19.9587H63.899Z" fill="#282827"/>
</g>
<defs>
<linearGradient id="paint0_linear_215_1192" x1="-1.7956" y1="32.8625" x2="28.205" y2="3.12216" gradientUnits="userSpaceOnUse">
<stop stop-color="#46B17A"/>
<stop offset="0.5056" stop-color="#00AF9F"/>
<stop offset="1" stop-color="#45BEDF"/>
</linearGradient>
<clipPath id="clip0_215_1192">
<rect width="131" height="36" fill="white"/>
</clipPath>
</defs>
</svg>
