<svg width="245" height="48" viewBox="0 0 245 48" fill="none" xmlns="http://www.w3.org/2000/svg">
<path d="M27.1912 1.22146C24.7836 0.865033 22.7989 0.800225 20.7492 0.832627C18.3742 0.832627 15.9991 0.897428 13.6241 0.92983C12.0624 0.92983 11.4117 1.80469 11.4117 3.36C11.3791 5.10972 11.4117 6.85944 11.3791 8.60916C11.3466 10.7477 10.2729 11.8494 8.12563 11.8818C6.20607 11.9142 4.31904 11.8818 2.39947 11.8818C0.707653 11.9142 0.0569363 12.5622 0.0244013 14.2796C-0.00813376 16.3209 -0.00813376 18.3622 0.0244013 20.436C0.0569363 22.1209 0.707637 22.7365 2.46453 22.7365C4.57931 22.7689 6.69409 22.7689 8.77633 22.7365C10.4031 22.7041 11.0538 22.0885 11.0538 20.4684C11.0863 18.5243 11.0212 16.5801 11.0863 14.636C11.1188 12.8215 12.0949 11.8494 13.9169 11.8494C14.3724 11.8494 14.8279 11.8494 15.2833 11.8494C15.4135 11.8494 15.5111 11.8494 15.6412 11.8494C17.1378 11.8494 18.3091 11.817 19.4804 11.817C21.0746 11.817 22.6688 11.817 24.2955 11.8818C24.3606 11.8818 24.4257 11.8818 24.4908 11.8818C27.6792 11.9466 30.0868 14.4416 30.0217 17.4226C29.9566 20.4684 27.549 22.7365 24.3281 22.7689C23.7099 22.7689 23.1243 22.7689 22.5061 22.7689C20.6516 22.7041 18.7971 22.7365 16.9426 22.7689C15.9991 22.7689 15.0231 22.7689 14.0795 22.7689C14.0145 22.7689 13.9494 22.8013 13.8843 22.8337C13.7867 22.8337 13.7217 22.8337 13.6241 22.8337C12.0624 22.8337 11.4117 23.7086 11.4117 25.2639C11.3791 27.0136 11.4117 28.7633 11.3791 30.5131C11.3466 32.6516 10.2729 33.7533 8.12563 33.7857C6.20607 33.8181 4.31904 33.7857 2.39947 33.7857C0.707653 33.8181 0.0569363 34.4661 0.0244013 36.1835C-0.00813376 38.2248 -0.00813376 40.2661 0.0244013 42.3399C0.0569363 44.0248 0.707637 44.6405 2.46453 44.6405C4.57931 44.6729 6.69409 44.6729 8.77633 44.6405C10.4031 44.6081 11.0538 43.9924 11.0538 42.3723C11.0863 40.4282 11.0212 38.484 11.0863 36.5399C11.1188 34.7578 12.0624 33.8181 13.7867 33.7533C17.1053 33.8181 20.3913 33.8181 23.7099 33.7533C23.9051 33.7533 24.1003 33.7533 24.263 33.7533V33.7209C24.3931 33.7209 24.4908 33.7209 24.6209 33.7209C33.1451 33.5589 40.3028 27.0784 40.986 19.0427C41.7343 10.3589 35.8129 2.45274 27.1912 1.22146Z" fill="url(#paint0_linear_207_332)"/>
<path d="M175.877 0.832703H174.575V44.1221H175.877V0.832703Z" fill="url(#paint1_linear_207_332)"/>
<path d="M187.426 4.62377C187.426 4.00813 187.556 3.42488 187.784 2.93885C188.012 2.45281 188.304 2.03158 188.695 1.73996C189.053 1.44834 189.476 1.22153 189.931 1.05952C190.387 0.897511 190.842 0.832703 191.33 0.832703C192.209 0.832703 192.957 1.02711 193.543 1.41594V2.58242C192.989 2.16119 192.306 1.93438 191.493 1.93438C190.712 1.93438 190.061 2.16119 189.476 2.61483C188.923 3.06846 188.63 3.7165 188.63 4.59136C188.63 5.46622 188.89 6.11427 189.476 6.5679C190.029 7.02153 190.679 7.24834 191.46 7.24834C192.274 7.24834 192.989 7.05393 193.64 6.66511V7.86399C192.957 8.18801 192.176 8.35003 191.298 8.35003C190.257 8.35003 189.346 8.026 188.597 7.37796C187.784 6.72991 187.426 5.79025 187.426 4.62377Z" fill="#282827"/>
<path d="M195.853 7.34555C195.105 6.66511 194.714 5.75784 194.714 4.59136C194.714 3.42488 195.105 2.51762 195.853 1.83717C196.601 1.15673 197.512 0.832703 198.553 0.832703C199.595 0.832703 200.506 1.15673 201.254 1.83717C202.002 2.51762 202.393 3.42488 202.393 4.59136C202.393 5.75784 202.002 6.66511 201.254 7.34555C200.506 8.026 199.595 8.35003 198.553 8.35003C197.512 8.35003 196.601 7.9936 195.853 7.34555ZM200.44 6.50309C200.928 6.01706 201.189 5.40142 201.189 4.59136C201.189 3.78131 200.928 3.13327 200.44 2.67963C199.952 2.1936 199.302 1.96678 198.553 1.96678C197.805 1.96678 197.154 2.1936 196.666 2.67963C196.178 3.16567 195.918 3.78131 195.918 4.59136C195.918 5.40142 196.178 6.04946 196.666 6.50309C197.154 6.98913 197.805 7.21595 198.553 7.21595C199.302 7.21595 199.92 6.95673 200.44 6.50309Z" fill="#282827"/>
<path d="M209.355 6.24357C209.355 6.92402 209.062 7.41005 208.509 7.79887C207.923 8.1553 207.143 8.34972 206.134 8.34972C205.125 8.34972 204.247 8.1553 203.499 7.79887V6.66479C204.214 7.05362 205.06 7.24803 206.004 7.24803C207.468 7.24803 208.184 6.8592 208.184 6.11395C208.184 5.43351 207.663 5.07709 206.59 5.07709H205.028V3.97541H206.59C207.533 3.97541 208.021 3.68378 208.021 3.03574C208.021 2.64691 207.826 2.3877 207.468 2.19329C207.11 1.99888 206.622 1.90166 206.036 1.90166C205.158 1.90166 204.345 2.09608 203.596 2.4525V1.35083C204.41 0.994405 205.256 0.799988 206.167 0.799988C207.143 0.799988 207.891 0.994405 208.412 1.35083C208.932 1.70725 209.192 2.22568 209.192 2.87373C209.192 3.29496 209.062 3.65139 208.834 3.94301C208.607 4.23463 208.281 4.39663 207.858 4.49384C208.281 4.59105 208.639 4.81787 208.932 5.10949C209.192 5.43351 209.355 5.78994 209.355 6.24357Z" fill="#282827"/>
<path d="M211.404 10.0998H210.233V7.0864H211.177C212.023 5.5959 212.446 3.58696 212.413 0.994781H217.781V7.0864H218.822V10.0998H217.651V8.15568H211.404V10.0998ZM213.552 2.06405C213.487 4.00819 213.129 5.69311 212.478 7.054H216.577V2.06405H213.552Z" fill="#282827"/>
<path d="M226.24 6.66511C226.24 7.02153 226.436 7.21595 226.793 7.21595C226.956 7.21595 227.151 7.18354 227.347 7.11874V8.0908C227.054 8.18801 226.761 8.25281 226.436 8.25281C225.752 8.25281 225.297 7.9612 225.134 7.37796C224.353 8.026 223.442 8.31762 222.336 8.31762C221.653 8.31762 221.035 8.1232 220.547 7.76678C220.059 7.41036 219.798 6.85952 219.798 6.14667C219.798 5.30421 220.124 4.68857 220.742 4.29975C221.36 3.91092 222.141 3.7165 223.052 3.7165C223.703 3.7165 224.386 3.78131 225.037 3.94332V3.6841C225.037 3.13326 224.841 2.71203 224.484 2.38801C224.126 2.06398 223.605 1.90197 222.987 1.90197C222.076 1.90197 221.197 2.09639 220.384 2.45281V1.31874C221.328 0.994714 222.239 0.832703 223.117 0.832703C224.093 0.832703 224.874 1.09192 225.427 1.61035C225.98 2.12879 226.273 2.87404 226.273 3.87851V6.66511H226.24ZM221.035 6.11426C221.035 6.50309 221.197 6.82712 221.49 7.02153C221.783 7.21595 222.174 7.31315 222.596 7.31315C223.573 7.31315 224.386 6.95672 225.037 6.27628V4.98019C224.353 4.85058 223.735 4.78578 223.215 4.78578C222.596 4.78578 222.076 4.88299 221.653 5.1098C221.263 5.27181 221.035 5.62823 221.035 6.11426Z" fill="#282827"/>
<path d="M228.127 4.59136C228.127 3.42488 228.485 2.48522 229.201 1.83717C229.917 1.15673 230.763 0.832703 231.706 0.832703C232.585 0.832703 233.301 1.05952 233.886 1.48075C234.472 1.90198 234.83 2.45281 235.025 3.10086C235.22 3.7489 235.22 4.39695 235.057 5.1098H229.331C229.396 5.82265 229.722 6.34108 230.275 6.69751C230.828 7.05393 231.511 7.24834 232.292 7.24834C233.17 7.24834 233.951 7.05393 234.667 6.66511V7.83159C233.984 8.18801 233.138 8.35003 232.129 8.35003C230.991 8.35003 230.047 8.026 229.299 7.37796C228.518 6.72991 228.127 5.79025 228.127 4.59136ZM233.984 4.07293C234.016 3.87851 233.984 3.6517 233.951 3.42488C233.886 3.19807 233.789 2.97125 233.626 2.74443C233.463 2.51762 233.235 2.32321 232.91 2.1936C232.585 2.03159 232.227 1.96678 231.804 1.96678C231.153 1.96678 230.6 2.1612 230.112 2.51762C229.624 2.90645 229.396 3.42488 229.331 4.07293H233.984Z" fill="#282827"/>
<path d="M237.953 8.15568H236.814V0.994781H238.115L240.718 4.94786L243.321 0.994781H244.622V8.15568H243.484V2.7769L241.141 6.30875H240.23L237.888 2.7769V8.15568H237.953Z" fill="#282827"/>
<path d="M188.565 25.1988C187.816 24.5183 187.426 23.6111 187.426 22.4446C187.426 21.2781 187.816 20.3709 188.565 19.6904C189.313 19.01 190.224 18.6859 191.265 18.6859C192.306 18.6859 193.217 19.01 193.966 19.6904C194.714 20.3709 195.104 21.2781 195.104 22.4446C195.104 23.6111 194.714 24.5183 193.966 25.1988C193.217 25.8792 192.306 26.2033 191.265 26.2033C190.191 26.2033 189.313 25.8792 188.565 25.1988ZM193.12 24.3563C193.608 23.8703 193.868 23.2547 193.868 22.4446C193.868 21.6345 193.608 20.9865 193.12 20.5329C192.632 20.0468 191.981 19.82 191.233 19.82C190.484 19.82 189.834 20.0468 189.346 20.5329C188.858 21.0189 188.597 21.6345 188.597 22.4446C188.597 23.2547 188.858 23.9027 189.346 24.3563C189.834 24.8424 190.484 25.0692 191.233 25.0692C192.013 25.0692 192.632 24.8424 193.12 24.3563Z" fill="#282827"/>
<path d="M201.677 29.3138H200.473V26.2032C199.269 26.1708 198.26 25.8143 197.447 25.1339C196.666 24.4534 196.243 23.5462 196.243 22.4445C196.243 21.3428 196.634 20.4356 197.447 19.7551C198.228 19.0747 199.236 18.7182 200.473 18.6858V15.5752H201.677V18.6858C202.88 18.7182 203.889 19.0747 204.702 19.7551C205.483 20.4356 205.906 21.3428 205.906 22.4445C205.906 23.5462 205.516 24.4534 204.702 25.1339C203.921 25.8143 202.913 26.1708 201.677 26.2032V29.3138ZM198.293 20.5004C197.74 20.9864 197.48 21.6344 197.48 22.4445C197.48 23.2546 197.74 23.9026 198.293 24.3886C198.846 24.8747 199.562 25.1339 200.473 25.1663V19.7551C199.562 19.7875 198.846 20.0467 198.293 20.5004ZM201.677 19.7551V25.1663C202.588 25.1339 203.336 24.8747 203.856 24.3886C204.409 23.9026 204.67 23.2546 204.67 22.4445C204.67 21.6344 204.409 20.9864 203.856 20.5004C203.336 20.0467 202.588 19.7875 201.677 19.7551Z" fill="#282827"/>
<path d="M208.606 26.0416H207.598V18.8807H208.802V24.0975L213.194 18.8807H214.203V26.0416H212.999V20.8249L208.606 26.0416Z" fill="#282827"/>
<path d="M215.927 22.477C215.927 21.8614 216.057 21.2781 216.285 20.7921C216.513 20.3061 216.805 19.8848 217.196 19.5932C217.554 19.3016 217.977 19.0748 218.432 18.9128C218.888 18.7507 219.343 18.6859 219.831 18.6859C220.71 18.6859 221.458 18.8804 222.044 19.2692V20.4357C221.49 20.0144 220.807 19.7876 219.994 19.7876C219.213 19.7876 218.562 20.0144 217.977 20.4681C217.424 20.9217 217.131 21.5697 217.131 22.4446C217.131 23.3195 217.391 23.9675 217.977 24.4211C218.53 24.8748 219.18 25.1016 219.961 25.1016C220.775 25.1016 221.49 24.9072 222.141 24.5183V25.7172C221.458 26.0412 220.677 26.2033 219.799 26.2033C218.757 26.2033 217.847 25.8792 217.098 25.2312C216.317 24.5831 215.927 23.6759 215.927 22.477Z" fill="#282827"/>
<path d="M227.249 26.0416H223.833V18.8807H225.036V21.3757H227.249C228.095 21.3757 228.778 21.6025 229.299 22.0237C229.787 22.445 230.047 23.0282 230.047 23.6763C230.047 24.3567 229.787 24.9076 229.299 25.3288C228.811 25.8148 228.127 26.0416 227.249 26.0416ZM225.036 22.445V24.94H227.086C227.639 24.94 228.03 24.8427 228.355 24.6159C228.648 24.4215 228.811 24.0975 228.811 23.6763C228.811 23.255 228.648 22.931 228.355 22.7366C228.062 22.5422 227.639 22.4126 227.086 22.4126H225.036V22.445ZM232.617 26.0416H231.413V18.8807H232.617V26.0416Z" fill="#282827"/>
<path d="M194.91 40.5575C194.91 41.6592 194.584 42.534 193.901 43.1497C193.218 43.7653 192.339 44.0894 191.233 44.0894C190.127 44.0894 189.216 43.7329 188.533 42.9877C187.85 42.2424 187.492 41.238 187.492 39.9095C187.492 38.743 187.687 37.7709 188.077 36.9285C188.468 36.086 189.021 35.4704 189.704 35.0491C190.16 34.7575 190.648 34.5631 191.136 34.4011C191.624 34.2391 192.047 34.1419 192.372 34.1095C192.697 34.0771 193.023 33.9799 193.38 33.8503C193.738 33.7207 194.031 33.5586 194.259 33.3318V34.5955C193.966 34.7899 193.641 34.9519 193.218 35.0491C192.795 35.1463 192.339 35.2435 191.851 35.3732C191.363 35.5028 190.875 35.6972 190.42 35.9564C189.964 36.2156 189.606 36.572 189.379 36.9609C189.118 37.3821 188.923 37.8681 188.728 38.419C188.988 38.0301 189.346 37.7061 189.834 37.4469C190.322 37.1877 190.843 37.0905 191.363 37.0905C192.339 37.0905 193.153 37.4145 193.869 38.0626C194.584 38.6782 194.91 39.5206 194.91 40.5575ZM188.728 40.5575C188.728 41.238 188.956 41.8212 189.411 42.2748C189.867 42.7285 190.485 42.9553 191.233 42.9553C192.014 42.9553 192.6 42.7285 193.055 42.2748C193.511 41.8212 193.738 41.2704 193.738 40.5575C193.738 39.8771 193.511 39.2938 193.055 38.8402C192.6 38.3866 192.014 38.1598 191.233 38.1598C190.517 38.1598 189.932 38.3866 189.444 38.8726C188.956 39.391 188.728 39.9419 188.728 40.5575Z" fill="#282827"/>
<path d="M200.083 43.8949H196.667V36.734H197.87V39.229H200.083C200.929 39.229 201.612 39.4558 202.132 39.877C202.62 40.2982 202.881 40.8815 202.881 41.5295C202.881 42.21 202.62 42.7608 202.132 43.182C201.612 43.7005 200.929 43.8949 200.083 43.8949ZM197.838 40.3306V42.8256H199.887C200.441 42.8256 200.831 42.7284 201.156 42.5016C201.449 42.3072 201.612 41.9831 201.612 41.5619C201.612 41.1407 201.449 40.8167 201.156 40.6222C200.864 40.4278 200.441 40.2982 199.887 40.2982H197.838V40.3306ZM205.451 43.8949H204.247V36.734H205.451V43.8949Z" fill="#282827"/>
<path d="M207.143 40.363C207.143 39.7473 207.273 39.1641 207.5 38.678C207.728 38.192 208.021 37.7708 208.411 37.4792C208.769 37.1875 209.192 36.9607 209.648 36.7987C210.103 36.6367 210.559 36.5719 211.047 36.5719C211.925 36.5719 212.673 36.7663 213.259 37.1551V38.3216C212.706 37.9004 212.023 37.6736 211.209 37.6736C210.429 37.6736 209.778 37.9004 209.192 38.354C208.639 38.8077 208.346 39.4557 208.346 40.3306C208.346 41.2054 208.639 41.8535 209.192 42.3071C209.745 42.7607 210.396 42.9875 211.177 42.9875C211.99 42.9875 212.706 42.7931 213.357 42.4043V43.6032C212.673 43.9272 211.893 44.0892 211.014 44.0892C209.973 44.0892 209.062 43.7652 208.314 43.1172C207.533 42.4691 207.143 41.5618 207.143 40.363Z" fill="#282827"/>
<path d="M218.074 43.8949H216.871V37.8357H214.235V36.734H220.71V37.8357H218.074V43.8949Z" fill="#282827"/>
<path d="M223.149 37.9655C223.963 37.0582 224.939 36.6046 226.045 36.6046C227.086 36.6046 227.932 36.961 228.615 37.6739C229.299 38.3867 229.624 39.294 229.624 40.3633C229.624 41.4325 229.299 42.3398 228.615 43.0526C227.932 43.7655 227.086 44.1219 226.045 44.1219C224.906 44.1219 223.995 43.7007 223.247 42.8582V47.2001H222.043V36.7666H223.117V37.9655H223.149ZM227.704 42.2426C228.192 41.7566 228.42 41.1085 228.42 40.3309C228.42 39.5208 228.192 38.9052 227.704 38.4191C227.216 37.9331 226.631 37.6739 225.915 37.6739C225.297 37.6739 224.776 37.8359 224.288 38.1923C223.833 38.5163 223.475 38.9376 223.247 39.456V41.2381C223.475 41.7242 223.8 42.1454 224.288 42.5018C224.744 42.8258 225.297 43.0203 225.915 43.0203C226.631 42.9879 227.216 42.7286 227.704 42.2426Z" fill="#282827"/>
<path d="M231.999 43.0848C231.251 42.4043 230.861 41.4971 230.861 40.3306C230.861 39.1641 231.251 38.2568 231.999 37.5764C232.748 36.8959 233.659 36.5719 234.7 36.5719C235.741 36.5719 236.652 36.8959 237.4 37.5764C238.148 38.2568 238.539 39.1641 238.539 40.3306C238.539 41.4971 238.148 42.4043 237.4 43.0848C236.652 43.7652 235.741 44.0892 234.7 44.0892C233.659 44.0892 232.748 43.7652 231.999 43.0848ZM236.587 42.2423C237.075 41.7563 237.335 41.1406 237.335 40.3306C237.335 39.5205 237.075 38.8725 236.587 38.4188C236.099 37.9328 235.448 37.706 234.7 37.706C233.951 37.706 233.301 37.9328 232.813 38.4188C232.325 38.9049 232.064 39.5205 232.064 40.3306C232.064 41.1406 232.325 41.7887 232.813 42.2423C233.301 42.7283 233.951 42.9551 234.7 42.9551C235.448 42.9551 236.066 42.7283 236.587 42.2423Z" fill="#282827"/>
<path fill-rule="evenodd" clip-rule="evenodd" d="M148.287 16.1266L163.025 16.0294V20.1121H142.919V0.994751H163.025L163.058 5.04503H148.287V8.31766H160.845V12.3031H148.287V16.1266Z" fill="#282827"/>
<path fill-rule="evenodd" clip-rule="evenodd" d="M139.535 0.994751V20.1121H134.134V9.80816L129.091 20.1121H123.95L118.55 9.61375V20.1121H113.181V0.994751H119.493L126.521 14.9277L133.32 0.994751H139.535Z" fill="#282827"/>
<path d="M109.765 0.994751H104.397V20.1121H109.765V0.994751Z" fill="#282827"/>
<path fill-rule="evenodd" clip-rule="evenodd" d="M95.4167 13.6313C97.1085 13.2749 98.4424 12.562 99.386 11.4928C100.362 10.4235 100.818 9.0626 100.818 7.44248V7.34528C100.818 6.08159 100.46 4.97991 99.7764 4.00784C99.0932 3.06818 98.1171 2.32293 96.8808 1.77209C95.6444 1.25366 94.2129 0.962036 92.6187 0.962036H78.5961V20.0794H83.7691V13.8905H89.2025L94.5057 20.0794H100.948L95.4167 13.6313ZM93.855 9.84025C93.3344 9.90505 92.5861 9.96986 91.6426 9.96986H83.8017V4.91511C86.8925 4.91511 89.1374 4.91511 90.569 4.8503C90.8618 4.8179 91.2197 4.8179 91.6426 4.8179C92.5861 4.8179 93.3344 4.85031 93.855 4.94752C94.3756 5.04472 94.7985 5.27153 95.1239 5.62796C95.4492 6.01678 95.6119 6.60003 95.6119 7.44248C95.6119 8.22014 95.4492 8.77098 95.1239 9.15981C94.7985 9.54864 94.3756 9.77544 93.855 9.84025Z" fill="#282827"/>
<path fill-rule="evenodd" clip-rule="evenodd" d="M74.204 4.04056C73.5208 3.06849 72.5773 2.32324 71.3084 1.80481C70.0721 1.28637 68.6405 0.994751 67.0463 0.994751H53.0237V20.1121H58.4245V13.9232H67.5343C69.9745 13.9232 71.894 13.3724 73.228 12.2707C74.5619 11.1691 75.2451 9.54894 75.2451 7.4752V7.378C75.2451 6.08191 74.8872 4.98022 74.204 4.04056ZM69.7142 9.19251C69.3563 9.54894 68.9333 9.77575 68.4128 9.84056C67.8922 9.90536 67.1764 9.97017 66.2329 9.97017H58.392V4.91542C60.6369 4.91542 62.2311 4.91542 63.2072 4.91542C64.1832 4.91542 64.8665 4.91542 65.2569 4.91542H66.2329C67.1439 4.91542 67.8597 4.94782 68.4128 5.04503C68.9333 5.14224 69.3888 5.36906 69.7467 5.72548C70.1046 6.0819 70.2673 6.69755 70.2673 7.5076C70.2347 8.28526 70.0721 8.83609 69.7142 9.19251Z" fill="#282827"/>
<path fill-rule="evenodd" clip-rule="evenodd" d="M109.57 29.7353C108.529 28.2448 107.097 27.0459 105.275 26.2035C103.453 25.361 101.404 24.9074 99.1263 24.9074C96.9464 24.9074 94.9292 25.3286 93.0747 26.2035C91.2202 27.0459 89.7562 28.2448 88.6825 29.7353C87.6089 31.2582 87.0558 32.9107 87.0558 34.7901C87.0558 36.637 87.6089 38.2895 88.6825 39.8124C89.7562 41.3029 91.2202 42.4694 93.0747 43.3443C94.9292 44.1867 96.9464 44.6403 99.1263 44.6403C101.404 44.6403 103.453 44.2191 105.275 43.3443C107.097 42.5018 108.529 41.3353 109.57 39.8448C110.611 38.3543 111.132 36.6694 111.132 34.8225C111.132 32.9107 110.611 31.2258 109.57 29.7353ZM104.69 37.8683C104.072 38.7107 103.291 39.3912 102.282 39.8124C101.306 40.266 100.265 40.4929 99.1588 40.4929C98.0526 40.4929 96.9789 40.266 96.0029 39.8124C94.9943 39.3588 94.2135 38.7107 93.5953 37.8359C92.9771 36.961 92.6843 35.9241 92.6843 34.7577C92.6843 33.5912 92.9771 32.5867 93.5628 31.7118C94.1484 30.837 94.9618 30.189 95.9378 29.7353C96.9464 29.2817 97.9875 29.0549 99.1263 29.0549C100.232 29.0549 101.274 29.2817 102.25 29.7353C103.226 30.189 104.039 30.8694 104.657 31.7443C105.275 32.6191 105.568 33.6236 105.568 34.7901C105.601 35.9889 105.308 36.9934 104.69 37.8683Z" fill="#282827"/>
<path fill-rule="evenodd" clip-rule="evenodd" d="M137.159 29.7353C136.118 28.2448 134.687 27.0459 132.865 26.2035C131.043 25.361 128.993 24.9074 126.716 24.9074C124.536 24.9074 122.519 25.3286 120.664 26.2035C118.81 27.0459 117.346 28.2448 116.272 29.7353C115.198 31.2582 114.645 32.9107 114.645 34.7901C114.645 36.637 115.198 38.2895 116.272 39.8124C117.378 41.3029 118.842 42.4694 120.664 43.3443C122.519 44.1867 124.536 44.6403 126.716 44.6403C128.993 44.6403 131.043 44.2191 132.865 43.3443C134.687 42.5018 136.118 41.3353 137.159 39.8448C138.201 38.3543 138.721 36.6694 138.721 34.8225C138.721 32.9107 138.201 31.2258 137.159 29.7353ZM132.279 37.8683C131.661 38.7107 130.88 39.3912 129.904 39.8124C128.928 40.266 127.887 40.4929 126.781 40.4929C125.675 40.4929 124.601 40.266 123.592 39.8124C122.584 39.3588 121.803 38.7107 121.185 37.8359C120.599 36.961 120.274 35.9241 120.274 34.7577C120.274 33.5912 120.567 32.5867 121.152 31.7118C121.738 30.837 122.551 30.189 123.527 29.7353C124.536 29.2817 125.577 29.0549 126.716 29.0549C127.822 29.0549 128.863 29.2817 129.839 29.7353C130.815 30.189 131.629 30.8694 132.214 31.7443C132.832 32.6191 133.125 33.6236 133.125 34.7901C133.19 35.9889 132.865 36.9934 132.279 37.8683Z" fill="#282827"/>
<path fill-rule="evenodd" clip-rule="evenodd" d="M161.691 29.8969C160.78 28.4712 159.479 27.3695 157.819 26.5595C156.128 25.7494 154.175 25.3282 151.963 25.3282H142.268V44.1215H151.996C154.208 44.1215 156.16 43.7002 157.819 42.8902C159.511 42.0801 160.78 40.9461 161.691 39.5528C162.602 38.1271 163.057 36.5394 163.057 34.7572C163.057 32.9427 162.602 31.3226 161.691 29.8969ZM156.258 38.4511C155.184 39.2935 153.85 39.7148 152.223 39.7148H147.538V29.7025H152.223C153.232 29.7025 154.175 29.9293 155.054 30.3829C155.9 30.8366 156.583 31.4522 157.104 32.1975C157.624 32.9751 157.852 33.8176 157.852 34.7248C157.819 36.3773 157.299 37.6086 156.258 38.4511Z" fill="#282827"/>
<path d="M79.5402 25.3282L75.5709 38.2567L71.6016 25.3282H66.2659L62.2966 38.2567L58.3273 25.3282H52.9916L58.7503 44.0567H60.5072H64.086H65.8429L68.9338 34.012L72.0246 44.0567H73.7815H77.3603H79.1172L84.8759 25.3282H79.5402Z" fill="#282827"/>
<defs>
<linearGradient id="paint0_linear_207_332" x1="-2.23513" y1="41.1862" x2="34.635" y2="4.1649" gradientUnits="userSpaceOnUse">
<stop stop-color="#46B17A"/>
<stop offset="0.5056" stop-color="#00AF9F"/>
<stop offset="1" stop-color="#45BEDF"/>
</linearGradient>
<linearGradient id="paint1_linear_207_332" x1="175.237" y1="44.1358" x2="175.237" y2="0.84304" gradientUnits="userSpaceOnUse">
<stop stop-color="#46B17A"/>
<stop offset="0.5056" stop-color="#00AF9F"/>
<stop offset="1" stop-color="#45BEDF"/>
</linearGradient>
</defs>
</svg>
